<svg width="24" height="24" viewBox="0 0 24 24" fill="none" xmlns="http://www.w3.org/2000/svg">
<path d="M10 1.1547C11.2376 0.440169 12.7624 0.440169 14 1.1547L20.3923 4.8453C21.6299 5.55983 22.3923 6.88034 22.3923 8.3094V15.6906C22.3923 17.1197 21.6299 18.4402 20.3923 19.1547L14 22.8453C12.7624 23.5598 11.2376 23.5598 10 22.8453L3.6077 19.1547C2.37009 18.4402 1.6077 17.1197 1.6077 15.6906V8.3094C1.6077 6.88034 2.37009 5.55983 3.6077 4.8453L10 1.1547Z" fill="#FF966A"/>
<path d="M11 2.57735C11.6188 2.22008 12.3812 2.22008 13 2.57735L19.6603 6.42265C20.2791 6.77992 20.6603 7.44017 20.6603 8.1547V15.8453C20.6603 16.5598 20.2791 17.2201 19.6603 17.5774L13 21.4226C12.3812 21.7799 11.6188 21.7799 11 21.4226L4.33975 17.5774C3.72094 17.2201 3.33975 16.5598 3.33975 15.8453V8.1547C3.33975 7.44017 3.72094 6.77992 4.33975 6.42265L11 2.57735Z" fill="url(#paint0_linear_1137_6053)"/>
<path opacity="0.2" d="M13.0001 2.5774C12.3813 2.22013 11.6189 2.22013 11.0001 2.5774L4.33984 6.4227C3.72104 6.77996 3.33984 7.44022 3.33984 8.15475V15.8453C3.33984 16.5598 3.721 17.2201 4.33975 17.5773V9.07741C4.33975 8.72015 4.53034 8.39002 4.83975 8.21139L12.5 3.78874C12.8094 3.6101 13.1906 3.6101 13.5 3.78874L20.6459 7.91442C20.571 7.29455 20.2091 6.7395 19.6604 6.4227L13.0001 2.5774Z" fill="#EA4521"/>
<path fill-rule="evenodd" clip-rule="evenodd" d="M14.246 9.08911C14.6889 8.74116 15.2322 8.57141 15.8655 8.57141C16.1864 8.57141 16.4838 8.62079 16.7558 8.72191C17.0311 8.8221 17.2695 8.96432 17.4683 9.14998C17.6671 9.32987 17.8206 9.54785 17.9288 9.80178C18.044 10.0585 18.1005 10.3386 18.1005 10.6398V10.644C18.0942 10.8904 18.0468 11.1305 17.9587 11.3636C17.8785 11.5853 17.7738 11.7976 17.6449 12.0002C17.5177 12.2001 17.3727 12.3935 17.21 12.5803C17.0558 12.7641 16.8957 12.9421 16.7296 13.1141L16.7279 13.1158L15.7101 14.1401C15.7754 14.1359 15.8389 14.1338 15.9006 14.1338H18.1707V15.5683H13.2707V14.633L15.521 12.4185C15.8492 12.0903 16.1052 11.7882 16.2905 11.513C16.4656 11.253 16.552 10.9719 16.552 10.6661C16.552 10.3922 16.4765 10.2156 16.3523 10.1042L16.3478 10.1002C16.2221 9.97906 16.0421 9.90937 15.7865 9.90937C15.5762 9.90937 15.4078 9.97088 15.271 10.0888L15.2685 10.091C15.1197 10.2141 15.0179 10.357 14.9585 10.5205C14.9394 10.5731 14.9247 10.6284 14.9146 10.6867C14.909 10.7541 14.9034 10.8298 14.8978 10.9139L14.8857 11.0953L13.3967 10.8452L13.4218 10.6845C13.5314 9.98448 13.8002 9.4445 14.2451 9.08982L14.246 9.08911ZM11 14.7C11 14.1477 11.4477 13.7 12 13.7C12.5523 13.7 13 14.1477 13 14.7C13 15.2523 12.5523 15.7 12 15.7C11.4477 15.7 11 15.2523 11 14.7ZM8.284 9.00001V13.928H10.684V15.52H6.5V9.00001H8.284Z" fill="#FFDACB"/>
<defs>
<linearGradient id="paint0_linear_1137_6053" x1="7.5" y1="4.5" x2="16.5" y2="19.5" gradientUnits="userSpaceOnUse">
<stop stop-color="#FF6F41"/>
<stop offset="1" stop-color="#FF521C"/>
</linearGradient>
</defs>
</svg>
