<svg width="24" height="24" viewBox="0 0 24 24" fill="none" xmlns="http://www.w3.org/2000/svg">
<path d="M14.7018 16.2982C14.9006 16.4737 15 16.7076 15 17C15 17.269 14.9006 17.5029 14.7018 17.7018C14.5146 17.9006 14.2807 18 14 18C13.7193 18 13.4854 17.9006 13.2982 17.7018L8.40351 12.807C8.19298 12.5848 8.08772 12.3158 8.08772 12C8.08772 11.6725 8.19298 11.4035 8.40351 11.193L13.2982 6.29825C13.4854 6.09942 13.7193 6 14 6C14.2807 6 14.5146 6.09942 14.7018 6.29825C14.9006 6.48538 15 6.7193 15 7C15 7.2807 14.9006 7.51462 14.7018 7.70175L9.80702 12.5965C9.74854 12.655 9.7076 12.5731 9.68421 12.3509C9.66082 12.117 9.66082 11.8889 9.68421 11.6667C9.7076 11.4327 9.74854 11.345 9.80702 11.4035L14.7018 16.2982Z" fill="#333333"/>
</svg>
