<svg width="12" height="12" viewBox="0 0 12 12" fill="none" xmlns="http://www.w3.org/2000/svg">
<path d="M6 0C2.68941 0 0 2.68941 0 6C0 9.30353 2.68941 12 6 12C9.31059 12 12 9.30353 12 6C12 2.68941 9.31059 0 6 0ZM5.47059 2.46353C5.47059 2.17412 5.71059 1.93412 6 1.93412C6.28941 1.93412 6.52941 2.17412 6.52941 2.46353V6.58588C6.52941 6.87529 6.28941 7.11529 6 7.11529C5.71059 7.11529 5.47059 6.87529 5.47059 6.58588V2.46353ZM6 8.93647C5.67529 8.93647 5.41412 8.67529 5.41412 8.35059C5.41412 8.02588 5.67529 7.75765 6 7.75765C6.32471 7.75765 6.58588 8.02588 6.58588 8.35059C6.58588 8.67529 6.32471 8.93647 6 8.93647Z" fill="white"/>
</svg>
