<svg width="24" height="24" viewBox="0 0 24 24" fill="none" xmlns="http://www.w3.org/2000/svg">
<circle cx="12" cy="12" r="11" fill="#02B763"/>
<path fill-rule="evenodd" clip-rule="evenodd" d="M7.35775 9.07851C6.92722 9.28312 6.73805 9.82396 6.93521 10.2865L7.48291 11.5714H6.85714C6.38376 11.5714 6 11.9552 6 12.4286C6 12.902 6.38376 13.2857 6.85714 13.2857H8.21362L9.03657 15.2164C9.10516 15.4585 9.26751 15.6678 9.50061 15.7786C9.61632 15.8336 9.73769 15.8587 9.85714 15.8571C9.9766 15.8587 10.098 15.8336 10.2137 15.7786C10.4468 15.6678 10.6091 15.4585 10.6777 15.2164L12 12.1143L13.3223 15.2164C13.3909 15.4585 13.5532 15.6678 13.7863 15.7786C13.902 15.8336 14.0234 15.8587 14.1429 15.8571C14.2623 15.8587 14.3837 15.8336 14.4994 15.7786C14.7325 15.6678 14.8948 15.4585 14.9634 15.2164L15.7864 13.2857H17.1429C17.6162 13.2857 18 12.902 18 12.4286C18 11.9552 17.6162 11.5714 17.1429 11.5714H16.5171L17.0648 10.2865C17.262 9.82396 17.0728 9.28312 16.6423 9.07851C16.2117 8.8739 15.7029 9.083 15.5057 9.54555L14.1429 12.7429L12.8206 9.64075C12.752 9.39864 12.5896 9.18929 12.3565 9.07851C12.2408 9.02352 12.1195 8.99841 12 9.00008C11.8805 8.99841 11.7592 9.02352 11.6435 9.07851C11.4104 9.18929 11.248 9.39864 11.1794 9.64075L9.85714 12.7429L8.49427 9.54555C8.29711 9.083 7.78827 8.8739 7.35775 9.07851Z" fill="white"/>
</svg>
