<svg width="32" height="34" viewBox="0 0 32 34" fill="none" xmlns="http://www.w3.org/2000/svg">
<g clip-path="url(#clip0_635_4755)">
<rect x="0.000976562" y="0.5" width="32" height="31.9999" rx="16" fill="#FAE100"/>
<path d="M15.9017 8.46741C10.7469 8.46741 6.56836 11.7701 6.56836 15.8464C6.56836 18.4987 8.33774 20.8233 10.9953 22.1239C10.7997 22.8518 10.2887 24.7639 10.1864 25.1728C10.0595 25.6804 10.3715 25.6733 10.5777 25.5376C10.738 25.4301 13.1348 23.7999 14.1693 23.0967C14.7315 23.1796 15.3095 23.2236 15.9017 23.2236C21.0565 23.2236 25.235 19.921 25.235 15.8464C25.235 11.7718 21.0565 8.46741 15.9017 8.46741Z" fill="#371D1E"/>
<path d="M10.35 14.486H9.38421C8.82203 14.486 8.82027 13.5643 9.38421 13.5643C9.38421 13.5643 11.633 13.5837 12.3062 13.5837C12.9036 13.5837 12.9036 14.5231 12.3062 14.5231C11.6735 14.5231 11.351 14.5213 11.351 14.5213L11.3475 17.7464C11.3492 18.194 10.35 18.1888 10.35 17.7394C10.3553 17.1243 10.35 14.486 10.35 14.486Z" fill="#FAE100"/>
<path fill-rule="evenodd" clip-rule="evenodd" d="M12.7066 15.6703C12.9892 14.898 13.268 14.1359 13.3877 13.8723H13.386C13.4794 13.6661 13.6997 13.5833 13.9252 13.5833C14.1984 13.5833 14.4804 13.7049 14.5579 13.8723C14.6789 14.1291 15.1817 15.4886 15.5611 16.5141C15.7179 16.938 15.8537 17.3051 15.9325 17.5133C16.1211 18.0121 15.2082 18.3575 15.0197 17.8587C14.787 17.2437 14.8469 17.2155 14.8469 17.2155H13.0899L12.8978 17.8869C12.6934 18.3575 11.8104 17.9733 12.0149 17.5027C12.1539 17.1813 12.432 16.421 12.7066 15.6703ZM14.5209 16.3308L13.9869 14.6565L13.4071 16.3308H14.5209Z" fill="#FAE100"/>
<path d="M16.2717 14.0262C16.2717 14.8615 16.277 17.5544 16.277 17.5544C16.277 17.5544 16.1994 18.0901 16.6594 18.0901C16.8905 18.0901 17.2622 18.0888 17.632 18.0875C17.9983 18.0862 18.3629 18.0849 18.5874 18.0849C19.0385 18.0849 19.0368 17.1244 18.5856 17.1244C18.1345 17.1244 17.3097 17.1191 17.3097 17.1191C17.3097 17.1191 17.3132 14.6289 17.3114 14.0226C17.3114 13.7301 17.0506 13.5838 16.7916 13.5838C16.5325 13.5838 16.2699 13.7318 16.2717 14.0244V14.0262Z" fill="#FAE100"/>
<path d="M19.1491 17.1595C19.155 16.1084 19.166 14.1694 19.1581 13.894H19.1563C19.151 13.6913 19.4101 13.5874 19.6638 13.5874C19.9018 13.5874 20.1326 13.679 20.1379 13.8676C20.1502 14.3646 20.1379 15.2634 20.1379 15.2634C20.1379 15.2634 21.5689 13.8306 21.7716 13.6296C21.9813 13.4199 22.6316 14.0755 22.4219 14.2835C22.0624 14.6412 21.1495 15.6282 21.1495 15.6282L22.4942 17.3993C22.7497 17.7359 21.9443 18.3475 21.6888 18.0091L20.4216 16.282L20.1326 16.5146V17.8188C20.1326 18.2047 19.1457 18.2065 19.1457 17.8188C19.1457 17.7579 19.1471 17.5073 19.1491 17.1595Z" fill="#FAE100"/>
</g>
<defs>
<clipPath id="clip0_635_4755">
<rect width="32.001" height="33" fill="white" transform="translate(0 0.5)"/>
</clipPath>
</defs>
</svg>
