<svg width="24" height="15" viewBox="0 0 24 15" fill="none" xmlns="http://www.w3.org/2000/svg">
<path d="M4.46118 8.89553H0.920471C0.412235 8.89553 0 8.48188 0 7.97506C0 7.46682 0.412235 7.05318 0.920471 7.05318H4.46118C4.968 7.05318 5.38024 7.46682 5.38024 7.97506C5.38024 8.48188 4.968 8.89553 4.46118 8.89553ZM3.30918 5.25177H5.15718C5.66541 5.25177 6.07906 4.83812 6.07906 4.3313C6.07906 3.82447 5.66541 3.41082 5.15718 3.41082H3.30918C2.80094 3.41082 2.38729 3.82447 2.38729 4.3313C2.38729 4.83812 2.80094 5.25177 3.30918 5.25177ZM24 7.68V12.4151C24 12.9219 23.5878 13.3355 23.0795 13.3355H21.7694C21.3939 14.2885 20.4565 14.9379 19.4202 14.9379C18.384 14.9379 17.448 14.2885 17.0725 13.3355H9.82447C9.44894 14.2885 8.51153 14.9379 7.47529 14.9379C6.44047 14.9379 5.50306 14.2885 5.12753 13.3355H4.13788C3.62965 13.3355 3.21741 12.9219 3.21741 12.4151C3.21741 11.9082 3.62965 11.4946 4.13788 11.4946H5.12753C5.50306 10.5416 6.44047 9.89224 7.47529 9.89224C8.51153 9.89224 9.44894 10.5416 9.82447 11.4946H14.8405V1.90306H4.13788C3.62965 1.90306 3.21741 1.49082 3.21741 0.982589C3.21741 0.475766 3.62965 0.0621185 4.13788 0.0621185H15.7624C16.2692 0.0621185 16.6814 0.475766 16.6814 0.982589V3.41082H20.0188C20.2772 3.41082 20.5242 3.52094 20.6979 3.71153L23.7586 7.05882C23.9139 7.22965 24 7.44847 24 7.68ZM18.7398 12.4151C18.7398 12.792 19.0447 13.0969 19.4202 13.0969C19.7958 13.0969 20.1021 12.792 20.1021 12.4151C20.1021 12.0381 19.7958 11.7332 19.4202 11.7332C19.0447 11.7332 18.7398 12.0381 18.7398 12.4151ZM20.9915 6.75953L19.6136 5.25177H16.6814V11.4946H17.0725C17.448 10.5416 18.384 9.89224 19.4202 9.89224C20.4565 9.89224 21.3939 10.5416 21.7694 11.4946H22.1591V8.60047H18.0198C17.5129 8.60047 17.0993 8.18682 17.0993 7.68C17.0993 7.17318 17.5129 6.75953 18.0198 6.75953H20.9915ZM7.47529 11.7332C7.09835 11.7332 6.79341 12.0381 6.79341 12.4151C6.79341 12.792 7.09835 13.0969 7.47529 13.0969C7.85224 13.0969 8.15718 12.792 8.15718 12.4151C8.15718 12.0381 7.85224 11.7332 7.47529 11.7332Z" fill="white"/>
</svg>
