<svg id="icon_kakaonavi" xmlns="http://www.w3.org/2000/svg" width="24" height="24" viewBox="0 0 24 24">
  <path id="패스_8680" data-name="패스 8680" d="M18.461,0H5.539A5.539,5.539,0,0,0,0,5.539V18.461A5.539,5.539,0,0,0,5.539,24H18.461A5.539,5.539,0,0,0,24,18.461V5.539A5.539,5.539,0,0,0,18.461,0M18.4,9.878a7.156,7.156,0,0,1-1.992,4.065,18.726,18.726,0,0,0-3.92,6.585c-.087.264-.186.577-.553.586-.338.008-.455-.27-.534-.515a21.023,21.023,0,0,0-4.3-7.132,6.361,6.361,0,0,1-1.665-4.18A6.494,6.494,0,1,1,18.4,9.878" fill="#f9e000"/>
  <path id="패스_8679" data-name="패스 8679" d="M1934.441,1415.987a2.214,2.214,0,1,0,2.2,2.224,2.272,2.272,0,0,0-2.2-2.224" transform="translate(-1922.498 -1408.862)" fill="#f9e000"/>
  <path id="패스_8681" data-name="패스 8681" d="M1087.094,563.339a6.47,6.47,0,0,0-6.495,6.452,6.361,6.361,0,0,0,1.665,4.18,21.022,21.022,0,0,1,4.3,7.132c.079.245.2.524.534.516.367-.009.466-.321.553-.586a18.726,18.726,0,0,1,3.92-6.585,7.156,7.156,0,0,0,1.992-4.065,6.45,6.45,0,0,0-6.471-7.043m2.208,6.513a2.209,2.209,0,1,1-2.2-2.224,2.271,2.271,0,0,1,2.2,2.224" transform="translate(-1075.163 -560.504)" fill="#007dfd"/>
</svg>
