<svg width="24" height="24" viewBox="0 0 24 24" fill="none" xmlns="http://www.w3.org/2000/svg">
<path d="M17.7018 13.2982C17.9006 13.4737 18 13.7076 18 14C18 14.269 17.9006 14.5029 17.7018 14.7018C17.5146 14.9006 17.2807 15 17 15C16.7193 15 16.4854 14.9006 16.2982 14.7018L11.4035 9.80702C11.345 9.74854 11.4269 9.7076 11.6491 9.68421C11.883 9.66082 12.1111 9.66082 12.3333 9.68421C12.5673 9.7076 12.655 9.74854 12.5965 9.80702L7.70175 14.7018C7.52632 14.9006 7.2924 15 7 15C6.73099 15 6.49708 14.9006 6.29825 14.7018C6.09942 14.5029 6 14.269 6 14C6 13.7076 6.09942 13.4737 6.29825 13.2982L11.193 8.40351C11.4152 8.18129 11.6842 8.07017 12 8.07017C12.3275 8.07017 12.5965 8.18129 12.807 8.40351L17.7018 13.2982Z" fill="#02B763"/>
</svg>
