<svg id="Icon_Kakaotalk" xmlns="http://www.w3.org/2000/svg" width="24.521" height="22.652" viewBox="0 0 24.521 22.652">
  <rect id="사각형_1569" data-name="사각형 1569" width="19.149" height="8.138" transform="translate(2.99 5.724)" fill="#ffeb3b"/>
  <path id="패스_11" data-name="패스 11" d="M8.9,11.408h1.42L9.616,9.4Z" transform="translate(0.071 -0.846)" fill="#3e2723"/>
  <path id="패스_12" data-name="패스 12" d="M12.782,1.39C6,1.39.5,5.726.5,11.076c0,3.45,2.3,6.493,5.756,8.2-.192.651-1.207,4.176-1.25,4.453,0,0,0,.2.107.278a.363.363,0,0,0,.3,0c.384-.053,4.485-2.926,5.19-3.428a14.951,14.951,0,0,0,2.136.15c6.782,0,12.282-4.336,12.282-9.676S19.563,1.39,12.782,1.39ZM6.7,9.571v4.154c0,.438-.256.566-.587.684a.235.235,0,0,1-.117,0c-.384-.075-.694-.214-.7-.694V9.56H4.227a.683.683,0,0,1-.737-.684.651.651,0,0,1,.748-.684H7.826a.641.641,0,0,1,.684.684.673.673,0,0,1-.694.694A9.634,9.634,0,0,0,6.7,9.571Zm5.949,4.774a1.068,1.068,0,0,1-.449.1.566.566,0,0,1-.587-.31l-.363-.918H9.119l-.363.918a.566.566,0,0,1-.587.31,1.068,1.068,0,0,1-.449-.1c-.192-.085-.384-.342-.171-1L9.236,8.876a1.068,1.068,0,0,1,.95-.694,1.068,1.068,0,0,1,.94.694l1.655,4.464C13.038,14,12.846,14.259,12.653,14.344Zm3.578,0H13.967a.662.662,0,0,1-.684-.651V8.887a.726.726,0,0,1,.748-.694.716.716,0,0,1,.694.694v4.165h1.506a.651.651,0,1,1,.085,1.292Zm5.553-.534a.7.7,0,0,1-.79.609.716.716,0,0,1-.481-.278l-1.655-2.2-.246.246v1.6a.716.716,0,0,1-1.42,0v-4.9a.716.716,0,0,1,1.42,0v1.527l1.976-1.965a.491.491,0,0,1,.4-.16.716.716,0,0,1,.694.651.566.566,0,0,1-.16.438l-1.613,1.613L21.646,13.3a.716.716,0,0,1,.139.523Z" transform="translate(-0.5 -1.39)" fill="#3e2723"/>
</svg>
