<svg width="17" height="17" viewBox="0 0 17 17" fill="none" xmlns="http://www.w3.org/2000/svg">
<path d="M8.5 0C3.81 0 0 3.81 0 8.5C0 13.18 3.81 17 8.5 17C13.19 17 17 13.18 17 8.5C17 3.81 13.19 0 8.5 0ZM7.75 3.49C7.75 3.08 8.09 2.74 8.5 2.74C8.91 2.74 9.25 3.08 9.25 3.49V9.33C9.25 9.74 8.91 10.08 8.5 10.08C8.09 10.08 7.75 9.74 7.75 9.33V3.49ZM8.5 12.66C8.04 12.66 7.67 12.29 7.67 11.83C7.67 11.37 8.04 10.99 8.5 10.99C8.96 10.99 9.33 11.37 9.33 11.83C9.33 12.29 8.96 12.66 8.5 12.66Z" fill="#F4997A"/>
</svg>
