<svg xmlns="http://www.w3.org/2000/svg" width="17" height="18.386" viewBox="0 0 17 18.386">
  <g id="icon_product" transform="translate(0)">
    <path id="패스_8631" data-name="패스 8631" d="M5.395,14.073A2.157,2.157,0,1,0,7.55,16.229a2.159,2.159,0,0,0-2.155-2.156m.495,2.156a.5.5,0,1,1-.495-.495.5.5,0,0,1,.495.495" transform="translate(0 0)"/>
    <path id="패스_8632" data-name="패스 8632" d="M16.988.97a.832.832,0,0,0-1.3-.819.831.831,0,0,0-.34.538l-.4,2.341H.83a.829.829,0,0,0-.812,1L.94,8.413A4.634,4.634,0,0,0,5.162,12.07l9.058.585h.054a.831.831,0,0,0,.827-.775.129.129,0,0,0,0-.034.572.572,0,0,0,.046-.138ZM5.269,10.413a2.967,2.967,0,0,1-2.7-2.342L1.853,4.69H14.665l-1.073,6.26Z" transform="translate(0 0)"/>
    <path id="패스_8633" data-name="패스 8633" d="M12.761,14.073a2.156,2.156,0,1,0,2.156,2.156,2.158,2.158,0,0,0-2.156-2.156m.495,2.156a.495.495,0,1,1-.495-.495.5.5,0,0,1,.495.495" transform="translate(0 0)"/>
  </g>
</svg>
