<svg width="16" height="16" viewBox="0 0 16 16" fill="none" xmlns="http://www.w3.org/2000/svg">
<rect width="16" height="16" rx="8" fill="#02B763"/>
<path d="M8.23546 4C8.69325 4 9.12101 4.04324 9.51876 4.12973C9.91651 4.20901 10.2617 4.34595 10.5544 4.54054C10.8471 4.73513 11.076 4.99459 11.2411 5.31892C11.4137 5.63604 11.5 6.03243 11.5 6.50811C11.5 6.96216 11.4137 7.35856 11.2411 7.6973C11.076 8.02883 10.8471 8.3027 10.5544 8.51892C10.2692 8.73513 9.93152 8.8973 9.54128 9.00541C9.15103 9.10631 8.73077 9.15676 8.28049 9.15676H7.16604V12H5.5V4H8.23546ZM8.16792 7.89189C9.30113 7.89189 9.86773 7.43063 9.86773 6.50811C9.86773 6.03964 9.71764 5.71532 9.41745 5.53513C9.12477 5.35495 8.68949 5.26486 8.11163 5.26486H7.16604V7.89189H8.16792Z" fill="white"/>
</svg>
