<svg id="icon_distance" xmlns="http://www.w3.org/2000/svg" width="24" height="14.876" viewBox="0 0 24 14.876">
  <style>
    .green{fill: #02B763;}
  </style>
  <path id="icon_distance-2" class="green" data-name="icon_distance" d="M4.461,8.833H.92a.921.921,0,0,1,0-1.842H4.461a.921.921,0,0,1,0,1.842M3.309,5.19H5.157a.92.92,0,1,0,0-1.841H3.309a.92.92,0,1,0,0,1.841M24,7.618v4.735a.922.922,0,0,1-.92.92h-1.31a2.522,2.522,0,0,1-4.7,0H9.824a2.522,2.522,0,0,1-4.7,0h-.99a.92.92,0,0,1,0-1.841h.99a2.522,2.522,0,0,1,4.7,0H14.84V1.841H4.138A.92.92,0,0,1,4.138,0H15.762a.921.921,0,0,1,.919.92V3.349h3.337a.921.921,0,0,1,.679.3L23.759,7A.919.919,0,0,1,24,7.618m-5.26,4.735a.681.681,0,1,0,.68-.682.681.681,0,0,0-.68.682M20.992,6.7,19.614,5.19H16.681v6.243h.391a2.522,2.522,0,0,1,4.7,0h.39V8.538H18.02a.92.92,0,1,1,0-1.841ZM7.475,11.671a.682.682,0,1,0,.682.682.681.681,0,0,0-.682-.682"/>
</svg>
