<svg width="25" height="24" viewBox="0 0 25 24" fill="none" xmlns="http://www.w3.org/2000/svg">
<path d="M12.5 0C5.87882 0 0.5 5.37882 0.5 12C0.5 18.6071 5.87882 24 12.5 24C19.1212 24 24.5 18.6071 24.5 12C24.5 5.37882 19.1212 0 12.5 0ZM11.4412 6.33882C11.4412 5.76 11.9212 5.28 12.5 5.28C13.0788 5.28 13.5588 5.76 13.5588 6.33882V14.5835C13.5588 15.1624 13.0788 15.6424 12.5 15.6424C11.9212 15.6424 11.4412 15.1624 11.4412 14.5835V6.33882ZM12.5 19.2847C11.8506 19.2847 11.3282 18.7624 11.3282 18.1129C11.3282 17.4635 11.8506 16.9271 12.5 16.9271C13.1494 16.9271 13.6718 17.4635 13.6718 18.1129C13.6718 18.7624 13.1494 19.2847 12.5 19.2847Z" fill="#F75B5B"/>
</svg>
