<svg width="17" height="19" viewBox="0 0 17 19" fill="none" xmlns="http://www.w3.org/2000/svg">
<path d="M5.39528 14.3798C4.20628 14.3798 3.23828 15.3468 3.23828 16.5358C3.23828 17.7258 4.20628 18.6928 5.39528 18.6928C6.58328 18.6928 7.55028 17.7258 7.55028 16.5358C7.55028 15.3468 6.58328 14.3798 5.39528 14.3798ZM5.89028 16.5358C5.89028 16.8098 5.66828 17.0318 5.39528 17.0318C5.12128 17.0318 4.89928 16.8098 4.89928 16.5358C4.89928 16.2628 5.12128 16.0408 5.39528 16.0408C5.66828 16.0408 5.89028 16.2628 5.89028 16.5358Z" fill="white"/>
<path d="M16.9881 1.27679C17.0251 1.05879 16.9761 0.837795 16.8471 0.657795C16.7191 0.476795 16.5291 0.356795 16.3101 0.319795C16.0941 0.281795 15.8731 0.330795 15.6911 0.457795C15.5101 0.585795 15.3891 0.777795 15.3511 0.995795L14.9501 3.33679H0.830147C0.578147 3.33679 0.343147 3.44979 0.185147 3.64379C0.0271467 3.83879 -0.0338533 4.09179 0.0181467 4.33779L0.940147 8.71979C1.36615 10.7398 3.10215 12.2438 5.16215 12.3768L14.2201 12.9618L14.2741 12.9628C14.7101 12.9628 15.0731 12.6218 15.1011 12.1878C15.1031 12.1748 15.1021 12.1648 15.1011 12.1538C15.1181 12.1148 15.1381 12.0698 15.1471 12.0158L16.9881 1.27679ZM5.26915 10.7198C3.94915 10.6348 2.83715 9.67079 2.56515 8.37779L1.85315 4.99679H14.6651L13.5921 11.2568L5.26915 10.7198Z" fill="white"/>
<path d="M12.7615 14.3798C11.5725 14.3798 10.6055 15.3468 10.6055 16.5358C10.6055 17.7258 11.5725 18.6928 12.7615 18.6928C13.9505 18.6928 14.9175 17.7258 14.9175 16.5358C14.9175 15.3468 13.9505 14.3798 12.7615 14.3798ZM13.2565 16.5358C13.2565 16.8098 13.0345 17.0318 12.7615 17.0318C12.4885 17.0318 12.2665 16.8098 12.2665 16.5358C12.2665 16.2628 12.4885 16.0408 12.7615 16.0408C13.0345 16.0408 13.2565 16.2628 13.2565 16.5358Z" fill="white"/>
</svg>
