<svg id="menu_home_on" xmlns="http://www.w3.org/2000/svg" xmlns:xlink="http://www.w3.org/1999/xlink" width="16.998" height="17" viewBox="0 0 16.998 17">
  <defs>
    <clipPath id="clip-path">
      <rect id="사각형_3055" data-name="사각형 3055" width="16.998" height="17" fill="none"/>
    </clipPath>
  </defs>
  <g id="그룹_1374" data-name="그룹 1374" clip-path="url(#clip-path)">
    <path id="패스_8638" data-name="패스 8638" d="M14.151,8.139a.728.728,0,0,0-.7.755v5.65a1,1,0,0,1-1,1H11.074V12.922a2.486,2.486,0,0,0-2.485-2.485h-.18a2.488,2.488,0,0,0-2.485,2.485v2.622H4.556a1,1,0,0,1-1-1V8.894a.486.486,0,0,0,0-.054A.729.729,0,0,0,2.1,8.894v5.65A2.458,2.458,0,0,0,4.552,17h7.895a2.459,2.459,0,0,0,2.46-2.456V8.894a.486.486,0,0,0,0-.054.729.729,0,0,0-.756-.7M7.382,12.922a1.029,1.029,0,0,1,1.027-1.028h.18a1.028,1.028,0,0,1,1.028,1.028v2.621H7.382Zm9.451-5.4a.726.726,0,0,1-1.022.1L8.5,1.668,1.188,7.624a.728.728,0,0,1-.92-1.129L8.039.163a.73.73,0,0,1,.921,0l7.771,6.332a.73.73,0,0,1,.1,1.026" fill="#02b763"/>
  </g>
</svg>
