<svg width="14" height="14" viewBox="0 0 14 14" fill="none" xmlns="http://www.w3.org/2000/svg">
<path fill-rule="evenodd" clip-rule="evenodd" d="M6.9987 12.2497C9.89819 12.2497 12.2487 9.89922 12.2487 6.99972C12.2487 4.10023 9.89819 1.74972 6.9987 1.74972C4.0992 1.74972 1.7487 4.10023 1.7487 6.99972C1.7487 9.89922 4.0992 12.2497 6.9987 12.2497ZM6.9987 13.4164C10.5425 13.4164 13.4154 10.5435 13.4154 6.99972C13.4154 3.45589 10.5425 0.583054 6.9987 0.583054C3.45487 0.583054 0.582031 3.45589 0.582031 6.99972C0.582031 10.5435 3.45487 13.4164 6.9987 13.4164ZM6.41536 4.08305C6.41536 3.76089 6.67653 3.49972 6.9987 3.49972C7.32086 3.49972 7.58203 3.76089 7.58203 4.08305V7.58305C7.58203 7.90522 7.32086 8.16639 6.9987 8.16639C6.67653 8.16639 6.41536 7.90522 6.41536 7.58305V4.08305ZM6.99824 8.74972C6.57943 8.74972 6.23991 9.08924 6.23991 9.50805C6.23991 9.92687 6.57943 10.2664 6.99824 10.2664C7.41706 10.2664 7.75658 9.92687 7.75658 9.50805C7.75658 9.08924 7.41706 8.74972 6.99824 8.74972Z" fill="#A7ADBF"/>
</svg>
