<svg id="icon_refresh" xmlns="http://www.w3.org/2000/svg" width="18.5" height="18.5" viewBox="0 0 18.5 18.5">
  <path id="패스_8654" data-name="패스 8654" d="M9.25,0A9.439,9.439,0,0,0,1.5,3.955V1.645a.75.75,0,1,0-1.5,0V6.118c0,.015.008.028.009.043a.751.751,0,0,0,.031.154.673.673,0,0,0,.041.127.65.65,0,0,0,.079.117.664.664,0,0,0,.1.114c.011.011.017.025.029.035a.846.846,0,0,0,.085.043.769.769,0,0,0,.138.068.719.719,0,0,0,.145.03.776.776,0,0,0,.1.019H5.224a.75.75,0,0,0,0-1.5H2.286C3.868,3.369,5.668,1.5,9.25,1.5A7.75,7.75,0,1,1,1.5,9.25a.75.75,0,0,0-1.5,0A9.25,9.25,0,1,0,9.25,0" fill="#fff"/>
</svg>
