<svg width="24" height="24" viewBox="0 0 24 24" fill="none" xmlns="http://www.w3.org/2000/svg">
<path d="M10 1.1547C11.2376 0.440169 12.7624 0.440169 14 1.1547L20.3923 4.8453C21.6299 5.55983 22.3923 6.88034 22.3923 8.3094V15.6906C22.3923 17.1197 21.6299 18.4402 20.3923 19.1547L14 22.8453C12.7624 23.5598 11.2376 23.5598 10 22.8453L3.6077 19.1547C2.37009 18.4402 1.6077 17.1197 1.6077 15.6906V8.3094C1.6077 6.88034 2.37009 5.55983 3.6077 4.8453L10 1.1547Z" fill="#FF966A"/>
<path d="M11 2.57735C11.6188 2.22008 12.3812 2.22008 13 2.57735L19.6603 6.42265C20.2791 6.77992 20.6603 7.44017 20.6603 8.1547V15.8453C20.6603 16.5598 20.2791 17.2201 19.6603 17.5774L13 21.4226C12.3812 21.7799 11.6188 21.7799 11 21.4226L4.33975 17.5774C3.72094 17.2201 3.33975 16.5598 3.33975 15.8453V8.1547C3.33975 7.44017 3.72094 6.77992 4.33975 6.42265L11 2.57735Z" fill="url(#paint0_linear_1137_6039)"/>
<path opacity="0.2" d="M13.0001 2.5774C12.3813 2.22013 11.6189 2.22013 11.0001 2.5774L4.33984 6.4227C3.72104 6.77996 3.33984 7.44022 3.33984 8.15475V15.8453C3.33984 16.5598 3.721 17.2201 4.33975 17.5773V9.07741C4.33975 8.72015 4.53034 8.39002 4.83975 8.21139L12.5 3.78874C12.8094 3.6101 13.1906 3.6101 13.5 3.78874L20.6459 7.91442C20.571 7.29455 20.2091 6.7395 19.6604 6.4227L13.0001 2.5774Z" fill="#EA4521"/>
<path fill-rule="evenodd" clip-rule="evenodd" d="M15.7259 8.78491H16.9981V14.424H18.1401V15.7386H14.1609V14.424H15.4533V10.9768L15.4639 10.8096L14.5614 11.6307L13.6401 10.581L15.7259 8.78491ZM8.784 13.9281V9.00006H7V15.5201H11.184V13.9281H8.784ZM12.6992 13.7001C12.1469 13.7001 11.6992 14.1478 11.6992 14.7001C11.6992 15.2523 12.1469 15.7001 12.6992 15.7001C13.2515 15.7001 13.6992 15.2523 13.6992 14.7001C13.6992 14.1478 13.2515 13.7001 12.6992 13.7001Z" fill="#FFDACB"/>
<defs>
<linearGradient id="paint0_linear_1137_6039" x1="7.5" y1="4.5" x2="16.5" y2="19.5" gradientUnits="userSpaceOnUse">
<stop stop-color="#FF6F41"/>
<stop offset="1" stop-color="#FF521C"/>
</linearGradient>
</defs>
</svg>
