<svg width="24" height="24" viewBox="0 0 24 24" fill="none" xmlns="http://www.w3.org/2000/svg">
<path d="M10 1.1547C11.2376 0.440169 12.7624 0.440169 14 1.1547L20.3923 4.8453C21.6299 5.55983 22.3923 6.88034 22.3923 8.3094V15.6906C22.3923 17.1197 21.6299 18.4402 20.3923 19.1547L14 22.8453C12.7624 23.5598 11.2376 23.5598 10 22.8453L3.6077 19.1547C2.37009 18.4402 1.6077 17.1197 1.6077 15.6906V8.3094C1.6077 6.88034 2.37009 5.55983 3.6077 4.8453L10 1.1547Z" fill="#FFD56A"/>
<path d="M11 2.57735C11.6188 2.22008 12.3812 2.22008 13 2.57735L19.6603 6.42265C20.2791 6.77992 20.6603 7.44017 20.6603 8.1547V15.8453C20.6603 16.5598 20.2791 17.2201 19.6603 17.5774L13 21.4226C12.3812 21.7799 11.6188 21.7799 11 21.4226L4.33975 17.5774C3.72094 17.2201 3.33975 16.5598 3.33975 15.8453V8.1547C3.33975 7.44017 3.72094 6.77992 4.33975 6.42265L11 2.57735Z" fill="url(#paint0_linear_1137_6025)"/>
<path opacity="0.2" d="M13.0001 2.5774C12.3813 2.22013 11.6189 2.22013 11.0001 2.5774L4.33984 6.4227C3.72104 6.77996 3.33984 7.44022 3.33984 8.15475V15.8453C3.33984 16.5598 3.721 17.2201 4.33975 17.5773V9.07741C4.33975 8.72015 4.53034 8.39002 4.83975 8.21139L12.5 3.78874C12.8094 3.6101 13.1906 3.6101 13.5 3.78874L20.6459 7.91442C20.571 7.29455 20.2091 6.7395 19.6604 6.4227L13.0001 2.5774Z" fill="#FF852D"/>
<path fill-rule="evenodd" clip-rule="evenodd" d="M14.248 9.08911C14.6908 8.74116 15.2342 8.57141 15.8674 8.57141C16.1883 8.57141 16.4857 8.62079 16.7577 8.72191C17.033 8.8221 17.2715 8.96432 17.4702 9.14998C17.6691 9.32987 17.8226 9.54785 17.9308 9.80178C18.046 10.0585 18.1025 10.3386 18.1025 10.6398V10.644C18.0962 10.8904 18.0487 11.1305 17.9607 11.3636C17.8805 11.5853 17.7758 11.7976 17.6468 12.0002C17.5197 12.2001 17.3746 12.3935 17.212 12.5803C17.0578 12.7641 16.8976 12.9421 16.7315 13.1141L16.7299 13.1158L15.7121 14.1401C15.7773 14.1359 15.8408 14.1338 15.9025 14.1338H18.1727V15.5683H13.2727V14.633L15.523 12.4185C15.8512 12.0903 16.1071 11.7882 16.2925 11.513C16.4676 11.253 16.5539 10.9719 16.5539 10.6661C16.5539 10.3922 16.4784 10.2156 16.3542 10.1042L16.3498 10.1002C16.2241 9.97906 16.0441 9.90937 15.7885 9.90937C15.5781 9.90937 15.4097 9.97088 15.273 10.0888L15.2704 10.091C15.1217 10.2141 15.0199 10.357 14.9604 10.5205C14.9413 10.5731 14.9266 10.6284 14.9165 10.6867C14.911 10.7541 14.9054 10.8298 14.8998 10.9139L14.8877 11.0953L13.3986 10.8452L13.4238 10.6845C13.5334 9.98448 13.8021 9.4445 14.2471 9.08982L14.248 9.08911ZM11 14.7C11 14.1477 11.4477 13.7 12 13.7C12.5523 13.7 13 14.1477 13 14.7C13 15.2523 12.5523 15.7 12 15.7C11.4477 15.7 11 15.2523 11 14.7ZM8.284 9.00001V13.928H10.684V15.52H6.5V9.00001H8.284Z" fill="#FFEFC5"/>
<defs>
<linearGradient id="paint0_linear_1137_6025" x1="7.5" y1="4.5" x2="16.5" y2="19.5" gradientUnits="userSpaceOnUse">
<stop stop-color="#FFBE41"/>
<stop offset="1" stop-color="#FFB11C"/>
</linearGradient>
</defs>
</svg>
