<svg id="menu_mypage_on" xmlns="http://www.w3.org/2000/svg" xmlns:xlink="http://www.w3.org/1999/xlink" width="16.972" height="17" viewBox="0 0 16.972 17">
  <defs>
    <clipPath id="clip-path">
      <rect id="사각형_3063" data-name="사각형 3063" width="16.972" height="17" fill="none"/>
    </clipPath>
  </defs>
  <g id="그룹_1390" data-name="그룹 1390" clip-path="url(#clip-path)">
    <path id="패스_8646" data-name="패스 8646" d="M11.669,9.125a5.13,5.13,0,1,0-6.37,0A7.447,7.447,0,0,0,0,16.245.486.486,0,0,0,0,16.3a.728.728,0,1,0,1.454-.054,5.991,5.991,0,0,1,5.983-5.981h2.1a5.99,5.99,0,0,1,5.981,5.981.728.728,0,0,0,1.456,0,7.446,7.446,0,0,0-5.3-7.12M4.81,5.132A3.676,3.676,0,1,1,8.487,8.807,3.676,3.676,0,0,1,4.81,5.132" fill="#02b763"/>
  </g>
</svg>
