<svg width="64" height="26" viewBox="0 0 64 26" fill="none" xmlns="http://www.w3.org/2000/svg">
<path d="M12 0C5.37258 0 0 5.37258 0 12C0 15.5712 1.56003 18.7781 4.0358 20.9763C4.73692 21.5989 5.07915 22.5998 4.53279 23.3618C4.15777 23.8848 3.6604 24.4294 3.00129 24.9647C2.65261 25.2478 2.77212 25.8291 3.21792 25.8841C6.33252 26.268 9.03552 25.6436 10.9404 24.8175C11.9933 24.3609 13.1038 24 14.2513 24C25.4562 24.0001 37.0939 24 52 24C58.6274 24 64 18.6274 64 12C64 5.37258 58.6274 0 52 0H12Z" fill="#F4997A"/>
<path d="M16.368 17.196C15.668 17.196 14.9867 17.0653 14.324 16.804C13.6707 16.5427 13.092 16.1693 12.588 15.684L13.778 14.256C14.1513 14.6013 14.5667 14.8813 15.024 15.096C15.4907 15.3013 15.9527 15.404 16.41 15.404C16.9513 15.404 17.362 15.2967 17.642 15.082C17.922 14.8673 18.062 14.578 18.062 14.214C18.062 14.018 18.0247 13.8547 17.95 13.724C17.8753 13.5933 17.768 13.4767 17.628 13.374C17.4973 13.2713 17.334 13.178 17.138 13.094C16.9513 13.01 16.7413 12.9167 16.508 12.814L15.122 12.226C14.758 12.0767 14.4173 11.8807 14.1 11.638C13.792 11.3953 13.5353 11.0967 13.33 10.742C13.1247 10.378 13.022 9.944 13.022 9.44C13.022 9.02 13.1107 8.628 13.288 8.264C13.4653 7.89067 13.7127 7.57333 14.03 7.312C14.3473 7.04133 14.7253 6.83133 15.164 6.682C15.6027 6.52333 16.0833 6.444 16.606 6.444C17.222 6.444 17.81 6.56067 18.37 6.794C18.9393 7.018 19.434 7.34467 19.854 7.774L18.804 9.076C18.4773 8.80533 18.1367 8.59533 17.782 8.446C17.4273 8.29667 17.0353 8.222 16.606 8.222C16.1487 8.222 15.7847 8.32 15.514 8.516C15.2433 8.70267 15.108 8.96867 15.108 9.314C15.108 9.49133 15.15 9.64533 15.234 9.776C15.3273 9.90667 15.444 10.0233 15.584 10.126C15.7333 10.2287 15.906 10.3267 16.102 10.42C16.298 10.504 16.508 10.588 16.732 10.672L18.09 11.246C18.734 11.5073 19.2427 11.8527 19.616 12.282C19.9893 12.7113 20.176 13.304 20.176 14.06C20.176 14.48 20.0873 14.8813 19.91 15.264C19.742 15.6467 19.4947 15.9827 19.168 16.272C18.8413 16.552 18.44 16.776 17.964 16.944C17.4973 17.112 16.9653 17.196 16.368 17.196ZM24.2748 17.196C23.8082 17.196 23.4115 17.126 23.0848 16.986C22.7582 16.846 22.4922 16.65 22.2868 16.398C22.0815 16.1367 21.9322 15.824 21.8388 15.46C21.7455 15.096 21.6988 14.6947 21.6988 14.256V10.784H20.5928V9.258L21.7968 9.16L22.0348 7.06H23.7568V9.16H25.6888V10.784H23.7568V14.256C23.7568 15.1333 24.1115 15.572 24.8208 15.572C24.9515 15.572 25.0868 15.558 25.2268 15.53C25.3668 15.4927 25.4882 15.4507 25.5908 15.404L25.9268 16.902C25.7122 16.9767 25.4695 17.042 25.1988 17.098C24.9282 17.1633 24.6202 17.196 24.2748 17.196ZM28.8876 17.14C28.5423 17.14 28.2249 17.0887 27.9356 16.986C27.6463 16.874 27.3989 16.72 27.1936 16.524C26.9976 16.3187 26.8436 16.076 26.7316 15.796C26.6196 15.516 26.5636 15.208 26.5636 14.872C26.5169 13.9107 26.8483 13.2013 27.5576 12.744C28.2763 12.2773 29.4476 12.0207 31.0716 11.974C31.1089 11.6473 31.0483 11.316 30.8896 10.98C30.7216 10.7373 30.3389 10.616 29.7416 10.616C29.3776 10.616 28.9949 10.6813 28.5936 10.812C28.2016 10.9427 27.8283 11.1247 27.4736 11.358L26.8576 9.888C27.2869 9.62667 27.7816 9.40733 28.3416 9.23C28.9109 9.05267 29.5036 8.964 30.1196 8.964C32.1263 8.964 33.1296 10.1167 33.1296 12.422V17H31.4496L31.2956 16.202H31.2536C30.9176 16.4913 30.5489 16.72 30.1476 16.888C29.7556 17.056 29.3356 17.14 28.8876 17.14ZM29.5176 15.572C29.8163 15.5627 30.0869 15.4973 30.3296 15.376C30.5816 15.2453 30.8289 15.0587 31.0716 14.816V13.234C30.8289 13.2527 30.5863 13.276 30.3436 13.304C30.1103 13.3227 29.8816 13.3507 29.6576 13.388C29.2096 13.4533 28.8923 13.5887 28.7056 13.794C28.5283 13.9993 28.4443 14.242 28.4536 14.522C28.4629 14.8487 28.5656 15.1053 28.7616 15.292C28.9669 15.4787 29.2189 15.572 29.5176 15.572ZM36.9071 9.16L37.0471 10.546H37.1031C37.3924 10.0327 37.7284 9.64067 38.1111 9.37C38.5031 9.09933 38.9091 8.964 39.3291 8.964C39.5438 8.964 39.7211 8.98267 39.8611 9.02C40.0011 9.048 40.1318 9.08533 40.2531 9.132L39.8891 10.91C39.7584 10.8633 39.6278 10.8307 39.4971 10.812C39.3758 10.7933 39.2358 10.784 39.0771 10.784C38.7691 10.784 38.4471 10.9007 38.1111 11.134C37.7751 11.358 37.4951 11.7547 37.2711 12.324V17H35.2271V9.16H36.9071ZM44.1948 17.196C43.7281 17.196 43.3314 17.126 43.0048 16.986C42.6781 16.846 42.4121 16.65 42.2068 16.398C42.0014 16.1367 41.8521 15.824 41.7588 15.46C41.6654 15.096 41.6188 14.6947 41.6188 14.256V10.784H40.5128V9.258L41.7168 9.16L41.9548 7.06H43.6768V9.16H45.6088V10.784H43.6768V14.256C43.6768 15.1333 44.0314 15.572 44.7408 15.572C44.8714 15.572 45.0068 15.558 45.1468 15.53C45.2868 15.4927 45.4081 15.4507 45.5108 15.404L45.8468 16.902C45.6321 16.9767 45.3894 17.042 45.1188 17.098C44.8481 17.1633 44.5401 17.196 44.1948 17.196ZM48.0157 14.032L47.7217 8.306L47.6517 6.36H49.7237L49.6537 8.306L49.3597 14.032H48.0157ZM47.6797 17.196V15.208H49.7237V17.196H47.6797Z" fill="white"/>
</svg>
