<svg id="icon__mypage" data-name="icon _mypage" xmlns="http://www.w3.org/2000/svg" width="17" height="17" viewBox="0 0 17 17">
  <path id="패스_6785" data-name="패스 6785" d="M8.5,10.28a5.14,5.14,0,1,1,5.14-5.141A5.146,5.146,0,0,1,8.5,10.28m0-8.823a3.682,3.682,0,1,0,3.683,3.682A3.687,3.687,0,0,0,8.5,1.457" fill="#2c3149"/>
  <path id="패스_6786" data-name="패스 6786" d="M16.271,17a.729.729,0,0,1-.729-.729A6,6,0,0,0,9.551,10.28h-2.1a6,6,0,0,0-5.992,5.991.729.729,0,1,1-1.457,0A7.458,7.458,0,0,1,7.449,8.822h2.1A7.458,7.458,0,0,1,17,16.271a.729.729,0,0,1-.729.729" fill="#2c3149"/>
</svg>
