<svg width="17" height="18" viewBox="0 0 17 18" fill="none" xmlns="http://www.w3.org/2000/svg">
<path d="M8.5 0.5C3.81 0.5 0 4.31 0 9C0 13.68 3.81 17.5 8.5 17.5C13.19 17.5 17 13.68 17 9C17 4.31 13.19 0.5 8.5 0.5ZM7.75 4.99C7.75 4.58 8.09 4.24 8.5 4.24C8.91 4.24 9.25 4.58 9.25 4.99V10.83C9.25 11.24 8.91 11.58 8.5 11.58C8.09 11.58 7.75 11.24 7.75 10.83V4.99ZM8.5 14.16C8.04 14.16 7.67 13.79 7.67 13.33C7.67 12.87 8.04 12.49 8.5 12.49C8.96 12.49 9.33 12.87 9.33 13.33C9.33 13.79 8.96 14.16 8.5 14.16Z" fill="white"/>
</svg>
