<svg width="24" height="24" viewBox="0 0 24 24" fill="none" xmlns="http://www.w3.org/2000/svg">
<path d="M10 1.1547C11.2376 0.440169 12.7624 0.440169 14 1.1547L20.3923 4.8453C21.6299 5.55983 22.3923 6.88034 22.3923 8.3094V15.6906C22.3923 17.1197 21.6299 18.4402 20.3923 19.1547L14 22.8453C12.7624 23.5598 11.2376 23.5598 10 22.8453L3.6077 19.1547C2.37009 18.4402 1.6077 17.1197 1.6077 15.6906V8.3094C1.6077 6.88034 2.37009 5.55983 3.6077 4.8453L10 1.1547Z" fill="#FFD56A"/>
<path d="M11 2.57735C11.6188 2.22008 12.3812 2.22008 13 2.57735L19.6603 6.42265C20.2791 6.77992 20.6603 7.44017 20.6603 8.1547V15.8453C20.6603 16.5598 20.2791 17.2201 19.6603 17.5774L13 21.4226C12.3812 21.7799 11.6188 21.7799 11 21.4226L4.33975 17.5774C3.72094 17.2201 3.33975 16.5598 3.33975 15.8453V8.1547C3.33975 7.44017 3.72094 6.77992 4.33975 6.42265L11 2.57735Z" fill="url(#paint0_linear_1137_6032)"/>
<path opacity="0.2" d="M13.0001 2.5774C12.3813 2.22013 11.6189 2.22013 11.0001 2.5774L4.33984 6.4227C3.72104 6.77996 3.33984 7.44022 3.33984 8.15475V15.8453C3.33984 16.5598 3.721 17.2201 4.33975 17.5773V9.07741C4.33975 8.72015 4.53034 8.39002 4.83975 8.21139L12.5 3.78874C12.8094 3.6101 13.1906 3.6101 13.5 3.78874L20.6459 7.91442C20.571 7.29455 20.2091 6.7395 19.6604 6.4227L13.0001 2.5774Z" fill="#FF852D"/>
<path fill-rule="evenodd" clip-rule="evenodd" d="M15.885 8.5C15.2406 8.5 14.6945 8.66466 14.2593 9.0053L14.2583 9.00602C13.8234 9.35143 13.5477 9.88297 13.4152 10.576L13.3833 10.7428L13.5512 10.7683C13.7395 10.7968 13.9248 10.8311 14.1072 10.871L14.1129 10.8721C14.3059 10.9072 14.496 10.9393 14.6833 10.9686L14.8403 10.9931L14.8692 10.8369C14.8968 10.6879 14.9324 10.5514 14.9755 10.427C15.022 10.3036 15.0795 10.2022 15.1466 10.1202C15.2172 10.0408 15.305 9.97639 15.4123 9.92761C15.5132 9.88175 15.6455 9.85511 15.8153 9.85511C16.0711 9.85511 16.2462 9.92249 16.3642 10.0361L16.3688 10.0402C16.4837 10.1428 16.5547 10.3125 16.5495 10.5862V10.5893C16.5495 10.7122 16.5317 10.8211 16.4981 10.9175C16.4689 10.9959 16.4159 11.0709 16.3316 11.1417C16.2511 11.2036 16.1301 11.2594 15.9587 11.3022L15.9575 11.3025C15.7945 11.3446 15.5732 11.3701 15.2891 11.3758L15.129 11.379V12.574H15.2924C15.6292 12.574 15.8832 12.6001 16.061 12.6471L16.0664 12.6484C16.2551 12.6915 16.3797 12.7525 16.4561 12.8204L16.4601 12.8237C16.5383 12.8889 16.5849 12.9655 16.6057 13.0569L16.6075 13.0636C16.6381 13.1756 16.6541 13.3004 16.6541 13.4389C16.6541 13.5396 16.635 13.6382 16.596 13.7356C16.5591 13.8278 16.5009 13.9128 16.4181 13.9908C16.3433 14.0609 16.2433 14.1234 16.1136 14.1754C15.9972 14.2188 15.8525 14.2429 15.6758 14.2429C15.5442 14.2429 15.425 14.2139 15.3157 14.1568C15.1979 14.0954 15.0898 14.0158 14.9911 13.9175C14.8912 13.812 14.8072 13.6963 14.7389 13.5703C14.6693 13.4417 14.6194 13.315 14.5882 13.1902L14.543 13.0096L13.166 13.5514L13.2103 13.6959C13.3004 13.9903 13.4122 14.257 13.5466 14.4953L13.5475 14.4968C13.6843 14.7331 13.8531 14.9368 14.0541 15.1064L14.0584 15.1098C14.2664 15.2736 14.5045 15.3985 14.7712 15.4854C15.041 15.5732 15.3492 15.6154 15.6933 15.6154C16.0166 15.6154 16.3239 15.5696 16.614 15.4771C16.9105 15.3844 17.1729 15.2474 17.3993 15.0651L17.4014 15.0634C17.6287 14.8739 17.811 14.6408 17.9483 14.366C18.0887 14.0854 18.1598 13.7674 18.166 13.4157V13.4128C18.166 13.0055 18.0734 12.6545 17.8764 12.3712C17.7343 12.1563 17.5295 11.9816 17.2701 11.8433C17.4426 11.726 17.5954 11.5866 17.7279 11.4252C17.9486 11.1577 18.0524 10.8167 18.0527 10.417C18.0588 10.1512 18.0111 9.90105 17.9079 9.66892C17.805 9.43742 17.6541 9.23555 17.4573 9.06391C17.2661 8.8921 17.0362 8.75759 16.7704 8.65862C16.5061 8.55803 16.2113 8.5061 15.8881 8.5H15.885ZM14.9911 13.9175L14.9926 13.919L14.8741 14.0315L14.9897 13.916L14.9911 13.9175ZM16.1136 14.1754L16.1152 14.1748L16.1725 14.3277L16.1119 14.1761L16.1136 14.1754ZM16.3316 11.1417L16.3337 11.1401L16.4338 11.2688L16.3294 11.1435L16.3316 11.1417ZM16.4981 10.9175L16.4986 10.9163L16.6514 10.9726L16.4976 10.9188L16.4981 10.9175ZM15.1466 10.1202L15.1448 10.1223L15.0223 10.0141L15.1484 10.118L15.1466 10.1202ZM14.9755 10.427L14.9748 10.4288L14.8218 10.3714L14.9762 10.4251L14.9755 10.427ZM8.284 8.99997V13.928H10.684V15.52H6.5V8.99997H8.284Z" fill="#FFEFC5"/>
<rect x="11" y="13.7" width="2" height="2" rx="1" fill="#FFEFC5"/>
<defs>
<linearGradient id="paint0_linear_1137_6032" x1="7.5" y1="4.5" x2="16.5" y2="19.5" gradientUnits="userSpaceOnUse">
<stop stop-color="#FFBE41"/>
<stop offset="1" stop-color="#FFB11C"/>
</linearGradient>
</defs>
</svg>
