<svg width="12" height="12" viewBox="0 0 12 12" fill="none" xmlns="http://www.w3.org/2000/svg">
<path d="M4.9233 7.75708H2.05814C1.95084 7.75281 1.84682 7.7189 1.75762 7.65911C1.66842 7.59933 1.59753 7.516 1.55281 7.41837C1.50809 7.32074 1.49128 7.21264 1.50426 7.10604C1.51724 6.99944 1.55949 6.89853 1.62634 6.81448L6.77006 0.155446C6.828 0.0820469 6.90938 0.0307593 7.0006 0.0101563C7.09181 -0.0104467 7.18733 0.00088334 7.2712 0.0422527C7.35506 0.083622 7.42218 0.152524 7.46134 0.23744C7.50051 0.322357 7.50933 0.418143 7.48635 0.508787L6.80209 3.93438C6.79295 3.9756 6.79303 4.01833 6.80233 4.05951C6.81162 4.1007 6.8299 4.13932 6.85586 4.17262C6.88181 4.20592 6.91481 4.23307 6.95248 4.25214C6.99015 4.27121 7.03156 4.28172 7.07377 4.28292H9.75318C9.85949 4.28717 9.96259 4.32053 10.0513 4.37934C10.1399 4.43816 10.2107 4.52018 10.256 4.61647C10.3012 4.71276 10.3192 4.81963 10.3079 4.92542C10.2966 5.03122 10.2565 5.13188 10.1919 5.21644L5.28144 11.8381C5.22491 11.913 5.1443 11.966 5.05321 11.9884C4.96212 12.0107 4.86611 12.001 4.78136 11.9608C4.6966 11.9206 4.6283 11.8525 4.58794 11.7678C4.54759 11.6831 4.53765 11.5871 4.55981 11.496L5.19711 8.10242C5.20581 8.06137 5.20538 8.01891 5.19584 7.97805C5.18631 7.93718 5.1679 7.89892 5.14192 7.86597C5.11595 7.83301 5.08304 7.80617 5.04553 7.78736C5.00803 7.76854 4.96684 7.75821 4.9249 7.75708" fill="#FFAB5E"/>
</svg>
