<svg width="24" height="24" viewBox="0 0 24 24" fill="none" xmlns="http://www.w3.org/2000/svg">
<path d="M9.84659 15.5139H4.11627C3.90168 15.5054 3.69364 15.4376 3.51525 15.318C3.33685 15.1984 3.19506 15.0317 3.10562 14.8365C3.01617 14.6412 2.98257 14.425 3.00852 14.2118C3.03448 13.9986 3.11899 13.7968 3.25267 13.6287L13.5401 0.310648C13.656 0.16385 13.8188 0.0612745 14.0012 0.0200684C14.1836 -0.0211376 14.3747 0.00152254 14.5424 0.0842612C14.7101 0.167 14.8444 0.304803 14.9227 0.474637C15.001 0.64447 15.0187 0.836042 14.9727 1.01733L13.6042 7.86852C13.5859 7.95096 13.5861 8.03642 13.6047 8.11878C13.6232 8.20115 13.6598 8.2784 13.7117 8.345C13.7636 8.4116 13.8296 8.4659 13.905 8.50404C13.9803 8.54217 14.0631 8.56319 14.1475 8.56559H19.5064C19.719 8.5741 19.9252 8.64081 20.1025 8.75844C20.2798 8.87607 20.4215 9.04011 20.512 9.2327C20.6025 9.42528 20.6384 9.63901 20.6158 9.8506C20.5932 10.0622 20.513 10.2635 20.3838 10.4326L10.5629 23.676C10.4498 23.8257 10.2886 23.9318 10.1064 23.9765C9.92424 24.0212 9.73221 24.0017 9.56271 23.9214C9.39321 23.841 9.25659 23.7047 9.17588 23.5353C9.09517 23.366 9.0753 23.174 9.11963 22.9917L10.3942 16.2046C10.4116 16.1225 10.4108 16.0376 10.3917 15.9558C10.3726 15.8741 10.3358 15.7976 10.2838 15.7317C10.2319 15.6658 10.1661 15.6121 10.0911 15.5745C10.0161 15.5368 9.93369 15.5162 9.84979 15.5139" fill="#F4997A"/>
</svg>
