<svg id="btn_camera" xmlns="http://www.w3.org/2000/svg" width="21.474" height="16.999" viewBox="0 0 21.474 16.999">
  <path id="패스_8668" data-name="패스 8668" d="M21.026,2.684H15.877L14,.178A.456.456,0,0,0,13.645,0H7.605a.449.449,0,0,0-.376.2L5.57,2.684H.447A.446.446,0,0,0,0,3.132v9.841A4.029,4.029,0,0,0,4.026,17H17.447a4.032,4.032,0,0,0,4.027-4.026V3.132a.449.449,0,0,0-.448-.448M10.737,13.834A3.992,3.992,0,1,1,14.73,9.842a4,4,0,0,1-3.993,3.992m7.6-7.124a.895.895,0,1,1,.9-.894.895.895,0,0,1-.9.894" fill="#333"/>
</svg>
