<svg width="24" height="24" viewBox="0 0 24 24" fill="none" xmlns="http://www.w3.org/2000/svg">
<path d="M8.96491 7C8.96491 7.59649 9.09357 8.12281 9.35088 8.57895C9.60819 9.03509 9.96491 9.39181 10.4211 9.64912C10.8772 9.90643 11.4035 10.0351 12 10.0351C12.5965 10.0351 13.1228 9.90643 13.5789 9.64912C14.0351 9.39181 14.3918 9.03509 14.6491 8.57895C14.9064 8.12281 15.0351 7.59649 15.0351 7C15.0351 6.40351 14.9064 5.87719 14.6491 5.42105C14.3918 4.96491 14.0351 4.60819 13.5789 4.35088C13.1228 4.09357 12.5965 3.96491 12 3.96491C11.4035 3.96491 10.8772 4.09357 10.4211 4.35088C9.96491 4.60819 9.60819 4.96491 9.35088 5.42105C9.09357 5.87719 8.96491 6.40351 8.96491 7ZM7.03509 7C7.03509 6.09942 7.25731 5.26901 7.70175 4.50877C8.1462 3.74854 8.74854 3.1462 9.50877 2.70175C10.269 2.25731 11.0994 2.03509 12 2.03509C12.9006 2.03509 13.731 2.25731 14.4912 2.70175C15.2515 3.1462 15.8538 3.74854 16.2982 4.50877C16.7427 5.26901 16.9649 6.09942 16.9649 7C16.9649 7.90058 16.7427 8.73099 16.2982 9.49123C15.8538 10.2515 15.2515 10.8538 14.4912 11.2982C13.731 11.7427 12.9006 11.9649 12 11.9649C11.0994 11.9649 10.269 11.7427 9.50877 11.2982C8.74854 10.8538 8.1462 10.2515 7.70175 9.49123C7.25731 8.73099 7.03509 7.90058 7.03509 7ZM3.96491 18C3.96491 18.4094 4.04678 18.7719 4.21053 19.0877C4.37427 19.3918 4.60819 19.6257 4.91228 19.7895C5.22807 19.9532 5.59064 20.0351 6 20.0351H18C18.4094 20.0351 18.7661 19.9532 19.0702 19.7895C19.386 19.6257 19.6257 19.3918 19.7895 19.0877C19.9532 18.7719 20.0351 18.4094 20.0351 18C20.0351 17.462 19.6901 16.9649 19 16.5088C18.3216 16.0409 17.3684 15.6667 16.1404 15.386C14.924 15.1053 13.5439 14.9649 12 14.9649C10.4561 14.9649 9.07018 15.1053 7.84211 15.386C6.62573 15.6667 5.67251 16.0409 4.98246 16.5088C4.30409 16.9649 3.96491 17.462 3.96491 18ZM2.03509 18C2.03509 17.0292 2.48538 16.1696 3.38596 15.4211C4.29825 14.6608 5.51462 14.076 7.03509 13.6667C8.56725 13.2456 10.2222 13.0351 12 13.0351C13.7778 13.0351 15.4269 13.2456 16.9474 13.6667C18.4795 14.076 19.6959 14.6608 20.5965 15.4211C21.5088 16.1696 21.9649 17.0292 21.9649 18C21.9649 18.7135 21.7836 19.3743 21.4211 19.9825C21.0702 20.5906 20.5906 21.076 19.9825 21.4386C19.3743 21.7895 18.7135 21.9649 18 21.9649H6C5.28655 21.9649 4.62573 21.7895 4.01754 21.4386C3.40936 21.076 2.92398 20.5906 2.5614 19.9825C2.21053 19.3743 2.03509 18.7135 2.03509 18Z" fill="#02B763"/>
</svg>
