<svg width="24" height="24" viewBox="0 0 24 24" fill="none" xmlns="http://www.w3.org/2000/svg">
<path d="M14 8C14 7.59064 13.9181 7.23392 13.7544 6.92982C13.6023 6.62573 13.3743 6.39766 13.0702 6.24561C12.7661 6.08187 12.4094 6 12 6H6C5.60234 6 5.25146 6.08187 4.94737 6.24561C4.64327 6.39766 4.40936 6.62573 4.24561 6.92982C4.08187 7.23392 4 7.59064 4 8V14C4 14.3977 4.08187 14.7485 4.24561 15.0526C4.40936 15.3567 4.64327 15.5906 4.94737 15.7544C5.25146 15.9181 5.60234 16 6 16H14V8ZM6 18C5.28655 18 4.61988 17.8187 4 17.4561C3.39181 17.0936 2.90643 16.6082 2.54386 16C2.18129 15.3801 2 14.7135 2 14V8C2 7.27485 2.18129 6.60819 2.54386 6C2.90643 5.38012 3.39181 4.89474 4 4.54386C4.61988 4.18129 5.28655 4 6 4H12C12.7251 4 13.3918 4.18129 14 4.54386C14.6199 4.89474 15.1053 5.38012 15.4561 6C15.8187 6.60819 16 7.27485 16 8V18H6ZM16 16H18C18.4094 16 18.7661 15.9181 19.0702 15.7544C19.3743 15.5906 19.6023 15.3567 19.7544 15.0526C19.9181 14.7485 20 14.3977 20 14V11.8246C20 11.6608 19.9825 11.5322 19.9474 11.4386C19.9123 11.3333 19.8363 11.2281 19.7193 11.1228L17.8772 9.2807C17.7719 9.16374 17.6667 9.08772 17.5614 9.05263C17.4678 9.01754 17.3392 9 17.1754 9H16V16ZM17.1754 7C17.5731 7 17.9532 7.07602 18.3158 7.22807C18.6784 7.38012 19 7.59649 19.2807 7.87719L21.1228 9.7193C21.4035 10 21.6199 10.3216 21.7719 10.6842C21.924 11.0468 22 11.4269 22 11.8246V14C22 14.7135 21.8187 15.3801 21.4561 16C21.1053 16.6082 20.6199 17.0936 20 17.4561C19.3918 17.8187 18.7251 18 18 18H14V7H17.1754ZM4 17C4 16.7193 4.09942 16.4854 4.29825 16.2982C4.49708 16.0994 4.73099 16 5 16C5.2807 16 5.51462 16.0994 5.70175 16.2982C5.90058 16.4854 6 16.7193 6 17V18C6 18.3392 6.08187 18.5906 6.24561 18.7544C6.40936 18.9181 6.66082 19 7 19C7.35088 19 7.60234 18.9181 7.75439 18.7544C7.91813 18.5906 8 18.3392 8 18V17C8 16.7193 8.09942 16.4854 8.29825 16.2982C8.49708 16.0994 8.73099 16 9 16C9.2807 16 9.51462 16.0994 9.70175 16.2982C9.90058 16.4854 10 16.7193 10 17V18C10 18.538 9.8655 19.0409 9.59649 19.5088C9.32749 19.9649 8.96491 20.3275 8.50877 20.5965C8.05263 20.8655 7.54971 21 7 21C6.46199 21 5.95906 20.8655 5.49123 20.5965C5.03509 20.3275 4.67251 19.9649 4.40351 19.5088C4.1345 19.0409 4 18.538 4 18V17ZM14 17C14 16.7193 14.0994 16.4854 14.2982 16.2982C14.4971 16.0994 14.731 16 15 16C15.2807 16 15.5146 16.0994 15.7018 16.2982C15.9006 16.4854 16 16.7193 16 17V18C16 18.3392 16.0819 18.5906 16.2456 18.7544C16.4094 18.9181 16.6608 19 17 19C17.3509 19 17.6023 18.9181 17.7544 18.7544C17.9181 18.5906 18 18.3392 18 18V17C18 16.7193 18.0994 16.4854 18.2982 16.2982C18.4971 16.0994 18.731 16 19 16C19.2807 16 19.5146 16.0994 19.7018 16.2982C19.9006 16.4854 20 16.7193 20 17V18C20 18.538 19.8655 19.0409 19.5965 19.5088C19.3275 19.9649 18.9649 20.3275 18.5088 20.5965C18.0526 20.8655 17.5497 21 17 21C16.462 21 15.9591 20.8655 15.4912 20.5965C15.0351 20.3275 14.6725 19.9649 14.4035 19.5088C14.1345 19.0409 14 18.538 14 18V17Z" fill="#333333"/>
</svg>
