<svg width="24" height="24" viewBox="0 0 24 24" fill="none" xmlns="http://www.w3.org/2000/svg">
<path d="M7.05979 9.81784C6.87335 9.30828 7.13746 8.74486 7.6497 8.5594C8.16193 8.37393 8.72832 8.63666 8.91475 9.14622L10 12.1123L11.0081 9.35712C11.0538 9.0047 11.2909 8.68931 11.6497 8.5594C11.7654 8.51752 11.8838 8.49849 12 8.5C12.1162 8.49849 12.2346 8.51752 12.3503 8.5594C12.7091 8.68931 12.9462 9.0047 12.9919 9.35712L14 12.1123L15.0852 9.14622C15.2717 8.63666 15.8381 8.37393 16.3503 8.5594C16.8625 8.74486 17.1266 9.30828 16.9402 9.81784L16.3248 11.4999H17C17.5523 11.4999 18 11.9476 18 12.4999C18 13.0522 17.5523 13.4999 17 13.4999H15.593L14.9919 15.1427C14.9462 15.4951 14.7091 15.8105 14.3503 15.9404C14.2346 15.9823 14.1162 16.0013 14 15.9998C13.8838 16.0013 13.7654 15.9823 13.6497 15.9404C13.2909 15.8105 13.0538 15.4951 13.0081 15.1427L12 12.3875L10.9919 15.1427C10.9462 15.4951 10.7091 15.8105 10.3503 15.9404C10.2346 15.9823 10.1162 16.0013 10 15.9998C9.8838 16.0013 9.76537 15.9823 9.6497 15.9404C9.29087 15.8105 9.05381 15.4951 9.00808 15.1427L8.40701 13.4999H7C6.44772 13.4999 6 13.0522 6 12.4999C6 11.9476 6.44772 11.4999 7 11.4999H7.67524L7.05979 9.81784Z" fill="#02B763"/>
<path fill-rule="evenodd" clip-rule="evenodd" d="M23 12C23 18.0751 18.0751 23 12 23C5.92487 23 1 18.0751 1 12C1 5.92487 5.92487 1 12 1C18.0751 1 23 5.92487 23 12ZM21 12C21 16.9706 16.9706 21 12 21C7.02944 21 3 16.9706 3 12C3 7.02944 7.02944 3 12 3C16.9706 3 21 7.02944 21 12Z" fill="#02B763"/>
</svg>
