<svg width="24" height="24" viewBox="0 0 24 24" fill="none" xmlns="http://www.w3.org/2000/svg">
<path fill-rule="evenodd" clip-rule="evenodd" d="M6.5 15.9998V7.99984L3.5 7.99984L3.5 15.9998H6.5ZM8.5 16.2576V7.73435C8.57488 7.70561 8.64899 7.67459 8.72221 7.64131L16.5 4.10595V10.9999V19.8939L8.5 16.2576ZM7.49994 17.9998L7.5 17.9999L7.50004 18L15.6724 21.7147C16.9966 22.3166 18.5 21.3485 18.5 19.8939V16.8999C18.8478 16.8293 19.1825 16.7226 19.5 16.5839C21.2659 15.8124 22.5 14.0503 22.5 12C22.5 9.94964 21.2659 8.18756 19.5 7.416C19.1825 7.27728 18.8478 7.17058 18.5 7.09998V4.10595C18.5 2.65137 16.9966 1.68331 15.6724 2.28522L7.89461 5.82058C7.6347 5.93872 7.3525 5.99984 7.067 5.99984H3.5C2.39543 5.99984 1.5 6.89527 1.5 7.99984V15.9998C1.5 17.1044 2.39543 17.9998 3.5 17.9998H7.49994ZM20.5 12C20.5 13.3062 19.6652 14.4174 18.5 14.8293V10.9999V9.17066C19.6652 9.5825 20.5 10.6937 20.5 12Z" fill="#22242A"/>
</svg>
