<svg id="btn_zoom" xmlns="http://www.w3.org/2000/svg" width="24" height="24" viewBox="0 0 24 24">
  <rect id="사각형_3081" data-name="사각형 3081" width="24" height="24" rx="6" opacity="0.4"/>
  <path id="패스_8661" data-name="패스 8661" d="M14,.75V5.355a.75.75,0,0,1-1.5,0V2.561L8.846,6.215a.75.75,0,1,1-1.06-1.061L11.439,1.5H8.645a.75.75,0,1,1,0-1.5h4.6A.754.754,0,0,1,14,.75M5.154,7.786,1.5,11.44V8.645a.75.75,0,1,0-1.5,0v4.6A.753.753,0,0,0,.75,14H5.355a.75.75,0,0,0,0-1.5H2.56L6.215,8.847A.75.75,0,1,0,5.154,7.786" transform="translate(5 5)" fill="#fff"/>
</svg>
