<svg width="60" height="45" xmlns="http://www.w3.org/2000/svg">

 <g>
  <title>Layer 1</title>
  <g stroke="null">
   <g transform="translate(0 0)" stroke="null" id="svg_1">
    <path stroke="null" fill="#02b763" d="m44.04928,15.789a6.419,6.419 0 0 0 0.111,-0.82a2,2 0 0 0 -0.57,-1.519a2.165,2.165 0 0 0 -1.549,-0.539a2.078,2.078 0 0 0 -1.439,0.509a1.734,1.734 0 0 0 -0.569,1.339a2.441,2.441 0 0 0 1.189,1.988a27.75,27.75 0 0 0 3.757,2.088a44.307,44.307 0 0 1 4.865,2.618a11.661,11.661 0 0 1 3.327,3.277a8.591,8.591 0 0 1 1.389,4.965a10.646,10.646 0 0 1 -1.778,6.035a11.709,11.709 0 0 1 -5.126,4.2a19.106,19.106 0 0 1 -7.933,1.519q-6.7,0 -10.69,-2.678a8.843,8.843 0 0 1 -3.987,-7.833c0,-0.34 0.03,-0.86 0.1,-1.539l12.155,0a3.168,3.168 0 0 0 0.49,2.368a2.653,2.653 0 0 0 2.138,0.769a2.474,2.474 0 0 0 1.539,-0.459a1.562,1.562 0 0 0 0.619,-1.339a2.43,2.43 0 0 0 -1.204,-2.074a24.243,24.243 0 0 0 -3.882,-1.954a36.77,36.77 0 0 1 -4.816,-2.368a9.675,9.675 0 0 1 -0.909,-0.609l-14.375,-2.049a0.753,0.753 0 0 1 0.08,-1.5l11.13,-0.41l1.629,-0.059l-1.8,-0.43l-17.362,-4.155a0.749,0.749 0 0 1 0.16,-1.478l17.115,-0.3l1.819,-0.04l-1.729,-0.3l-22.32,-3.948a0.751,0.751 0 0 1 0.06,-1.488l33.831,-3.377c0.45,-0.06 0.919,-0.1 1.388,-0.129c0.591,-0.05 1.189,-0.07 1.809,-0.07c0.2,0 0.39,0 0.58,0.01l0.069,0a18.756,18.756 0 0 1 6.434,1.219a11.134,11.134 0 0 1 4.9,3.587a8.863,8.863 0 0 1 1.779,5.535c0,0.27 -0.04,0.76 -0.1,1.439l-12.324,-0.001z" data-name="패스 8651" id="svg_2"/>
   </g>
  </g>
 </g>
</svg>