<svg xmlns="http://www.w3.org/2000/svg" width="241" height="52.033" viewBox="0 0 241 52.033">
  <g id="logo_green" transform="translate(0)">
    <path id="패스_8651" data-name="패스 8651" d="M39.048,12.825a6.419,6.419,0,0,0,.111-.82,2,2,0,0,0-.57-1.519,2.165,2.165,0,0,0-1.549-.539,2.078,2.078,0,0,0-1.439.509,1.734,1.734,0,0,0-.569,1.339,2.441,2.441,0,0,0,1.189,1.988,27.75,27.75,0,0,0,3.757,2.088,44.307,44.307,0,0,1,4.865,2.618,11.661,11.661,0,0,1,3.327,3.277,8.591,8.591,0,0,1,1.389,4.965,10.646,10.646,0,0,1-1.778,6.035,11.709,11.709,0,0,1-5.126,4.2,19.106,19.106,0,0,1-7.933,1.519q-6.7,0-10.69-2.678a8.843,8.843,0,0,1-3.987-7.833c0-.34.03-.86.1-1.539H32.3a3.168,3.168,0,0,0,.49,2.368,2.653,2.653,0,0,0,2.138.769,2.474,2.474,0,0,0,1.539-.459,1.562,1.562,0,0,0,.619-1.339A2.43,2.43,0,0,0,35.882,25.7,24.243,24.243,0,0,0,32,23.746a36.77,36.77,0,0,1-4.816-2.368,9.675,9.675,0,0,1-.909-.609L11.9,18.72a.753.753,0,0,1,.08-1.5l11.13-.41,1.629-.059-1.8-.43L5.577,12.166a.749.749,0,0,1,.16-1.478l17.115-.3,1.819-.04-1.729-.3L.622,6.1a.751.751,0,0,1,.06-1.488L34.513,1.235c.45-.06.919-.1,1.388-.129.591-.05,1.189-.07,1.809-.07.2,0,.39,0,.58.01h.069a18.756,18.756,0,0,1,6.434,1.219,11.134,11.134,0,0,1,4.9,3.587,8.863,8.863,0,0,1,1.779,5.535c0,.27-.04.76-.1,1.439Zm37.3-3.964a11.955,11.955,0,0,0-5.513,1.262,13.022,13.022,0,0,0-4.173,3.323L69.035,0H57.6L50.85,38.123H62.286l2.73-15.456v.051a5.93,5.93,0,0,1,1.675-3.3,4.449,4.449,0,0,1,3.169-1.185,3.436,3.436,0,0,1,2.5.876,3.29,3.29,0,0,1,.9,2.472,10.967,10.967,0,0,1-.1,1.133l-2.73,15.4H81.812L84.8,21.277a18.2,18.2,0,0,0,.308-3.245,9.515,9.515,0,0,0-2.266-6.724,8.414,8.414,0,0,0-6.491-2.447M99.224,38.484a19.5,19.5,0,0,0,9.376-2.241,16.521,16.521,0,0,0,6.543-6.26,17.521,17.521,0,0,0,2.37-9.067,12.259,12.259,0,0,0-1.649-6.414,11.252,11.252,0,0,0-4.585-4.276,14.591,14.591,0,0,0-6.8-1.52,19.212,19.212,0,0,0-9.325,2.267,16.887,16.887,0,0,0-6.569,6.285,17.365,17.365,0,0,0-2.4,9.067,12.243,12.243,0,0,0,1.649,6.414,11.067,11.067,0,0,0,4.585,4.251,14.793,14.793,0,0,0,6.8,1.494m1.751-9.891a2.892,2.892,0,0,1-2.215-.876,3.7,3.7,0,0,1-.824-2.627,8.126,8.126,0,0,1,1.288-4.482,3.972,3.972,0,0,1,3.5-2.009,2.914,2.914,0,0,1,2.189.876,3.634,3.634,0,0,1,.85,2.627,8.133,8.133,0,0,1-1.288,4.482,3.974,3.974,0,0,1-3.5,2.009m31.837-15.558.722-3.967H122.1l-7.573,42.966h11.437L129.1,34.157a6.1,6.1,0,0,0,2.55,3.168,8.568,8.568,0,0,0,4.662,1.159,12.561,12.561,0,0,0,6.44-1.778,15.5,15.5,0,0,0,5.2-5.152,21.7,21.7,0,0,0,2.988-7.96,19.982,19.982,0,0,0,.36-3.812q0-5.2-2.679-8.14a9.1,9.1,0,0,0-7.058-2.936A10.887,10.887,0,0,0,136.5,9.865a10.275,10.275,0,0,0-3.684,3.169m6.543,10.561a6.156,6.156,0,0,1-1.83,3.606,4.715,4.715,0,0,1-3.271,1.288,3.355,3.355,0,0,1-2.524-.953,3.716,3.716,0,0,1-.928-2.7,5.933,5.933,0,0,1,.1-1.237,6.154,6.154,0,0,1,1.829-3.606,4.72,4.72,0,0,1,3.272-1.288,3.36,3.36,0,0,1,2.524.953,3.722,3.722,0,0,1,.927,2.7,5.965,5.965,0,0,1-.1,1.236m27.2-10.561.722-3.967H155.841l-7.573,42.966H159.7l3.143-17.877a6.1,6.1,0,0,0,2.55,3.168,8.566,8.566,0,0,0,4.662,1.159,12.561,12.561,0,0,0,6.44-1.778,15.508,15.508,0,0,0,5.2-5.152,21.7,21.7,0,0,0,2.988-7.96,19.983,19.983,0,0,0,.36-3.812q0-5.2-2.679-8.14a9.1,9.1,0,0,0-7.058-2.936,10.89,10.89,0,0,0-5.075,1.159,10.279,10.279,0,0,0-3.683,3.169M173.1,23.595a6.155,6.155,0,0,1-1.829,3.606A4.718,4.718,0,0,1,168,28.49a3.357,3.357,0,0,1-2.524-.953,3.716,3.716,0,0,1-.927-2.7,5.887,5.887,0,0,1,.1-1.237,6.146,6.146,0,0,1,1.829-3.606,4.718,4.718,0,0,1,3.271-1.288,3.36,3.36,0,0,1,2.524.953,3.722,3.722,0,0,1,.927,2.7,5.966,5.966,0,0,1-.1,1.236M202.929,8.707a17.981,17.981,0,0,0-8.012,1.8,16.578,16.578,0,0,0-6.156,5.178,18.881,18.881,0,0,0-3.3,7.908,18.421,18.421,0,0,0-.309,3.3q0,5.462,3.374,8.526t9.145,3.065a17.125,17.125,0,0,0,6.878-1.417,17.96,17.96,0,0,0,5.692-3.863,15.325,15.325,0,0,0,3.556-5.538H201.692a3.371,3.371,0,0,1-2.988,1.7q-2.473,0-2.473-2.885a5.523,5.523,0,0,1,.052-.876h18.34a20.836,20.836,0,0,0,.567-2.267,17.888,17.888,0,0,0,.31-3.195,10.7,10.7,0,0,0-3.4-8.372q-3.4-3.065-9.169-3.065m1.081,12.21h-6.852q1.083-3.246,4.173-3.245a3.034,3.034,0,0,1,1.958.618,2.231,2.231,0,0,1,.773,1.854,4.284,4.284,0,0,1-.052.773m26.532-6.491.928-5.358H220.032L214.88,38.123h11.437l2.111-11.9A5.723,5.723,0,0,1,230.67,22.2a9.065,9.065,0,0,1,4.972-1.133h3.245L241,8.861a11.29,11.29,0,0,0-5.487,1.52,18.469,18.469,0,0,0-4.971,4.044" fill="#02b763"/>
  </g>
</svg>
