<svg id="logo_white" xmlns="http://www.w3.org/2000/svg" width="113.637" height="24.534" viewBox="0 0 113.637 24.534">
  <path id="패스_8650" data-name="패스 8650" d="M18.413,6.047a3.012,3.012,0,0,0,.052-.386.941.941,0,0,0-.269-.716,1.021,1.021,0,0,0-.73-.254.979.979,0,0,0-.678.24.816.816,0,0,0-.269.631,1.151,1.151,0,0,0,.561.938,13.12,13.12,0,0,0,1.771.985,20.8,20.8,0,0,1,2.294,1.234,5.5,5.5,0,0,1,1.569,1.545,4.051,4.051,0,0,1,.655,2.341,5.019,5.019,0,0,1-.839,2.846,5.52,5.52,0,0,1-2.417,1.979,9.012,9.012,0,0,1-3.741.716,8.915,8.915,0,0,1-5.041-1.263,4.17,4.17,0,0,1-1.88-3.694c0-.16.014-.405.047-.726h5.733a1.5,1.5,0,0,0,.231,1.117,1.251,1.251,0,0,0,1.008.363,1.164,1.164,0,0,0,.726-.217.735.735,0,0,0,.292-.631,1.146,1.146,0,0,0-.57-.975,11.453,11.453,0,0,0-1.833-.923,17.336,17.336,0,0,1-2.271-1.117,4.531,4.531,0,0,1-.429-.287L5.612,8.827A.355.355,0,0,1,5.65,8.12L10.9,7.927l.768-.028-.848-.2L2.63,5.736a.353.353,0,0,1,.075-.7l8.07-.141.857-.019-.815-.141L.293,2.877a.354.354,0,0,1,.028-.7L16.274.582c.212-.028.433-.047.655-.061.278-.024.561-.033.853-.033.094,0,.184,0,.273,0h.033a8.847,8.847,0,0,1,3.034.575A5.253,5.253,0,0,1,23.43,2.759a4.181,4.181,0,0,1,.839,2.61c0,.127-.019.358-.047.678ZM36,4.178a5.635,5.635,0,0,0-2.6.6A6.138,6.138,0,0,0,31.434,6.34L32.552,0H27.159L23.977,17.976H29.37l1.287-7.288v.024a2.8,2.8,0,0,1,.79-1.555A2.1,2.1,0,0,1,32.94,8.6a1.621,1.621,0,0,1,1.178.413,1.553,1.553,0,0,1,.425,1.166,5.181,5.181,0,0,1-.049.535l-1.287,7.263h5.368l1.409-7.944A8.574,8.574,0,0,0,40.131,8.5a4.485,4.485,0,0,0-1.069-3.17A3.967,3.967,0,0,0,36,4.178M46.787,18.146a9.2,9.2,0,0,0,4.421-1.057,7.791,7.791,0,0,0,3.085-2.952A8.261,8.261,0,0,0,55.41,9.862a5.78,5.78,0,0,0-.777-3.025,5.3,5.3,0,0,0-2.162-2.016,6.88,6.88,0,0,0-3.206-.717,9.063,9.063,0,0,0-4.4,1.068,7.964,7.964,0,0,0-3.1,2.964,8.189,8.189,0,0,0-1.129,4.275,5.771,5.771,0,0,0,.777,3.024,5.214,5.214,0,0,0,2.161,2,6.974,6.974,0,0,0,3.206.7m.826-4.664a1.364,1.364,0,0,1-1.044-.413,1.746,1.746,0,0,1-.389-1.239,3.835,3.835,0,0,1,.607-2.113,1.874,1.874,0,0,1,1.652-.947,1.376,1.376,0,0,1,1.032.413,1.714,1.714,0,0,1,.4,1.239,3.836,3.836,0,0,1-.607,2.113,1.875,1.875,0,0,1-1.652.947M62.625,6.146l.34-1.87H57.572L54,24.534h5.392l1.482-8.429a2.877,2.877,0,0,0,1.2,1.494,4.042,4.042,0,0,0,2.2.546,5.923,5.923,0,0,0,3.037-.838,7.318,7.318,0,0,0,2.454-2.429,10.237,10.237,0,0,0,1.409-3.753,9.418,9.418,0,0,0,.17-1.8A5.485,5.485,0,0,0,70.082,5.49a4.29,4.29,0,0,0-3.328-1.385,5.127,5.127,0,0,0-2.393.546,4.841,4.841,0,0,0-1.737,1.494m3.085,4.98a2.905,2.905,0,0,1-.863,1.7,2.226,2.226,0,0,1-1.542.607,1.583,1.583,0,0,1-1.19-.449,1.753,1.753,0,0,1-.438-1.275,2.79,2.79,0,0,1,.049-.583,2.9,2.9,0,0,1,.863-1.7,2.225,2.225,0,0,1,1.542-.607,1.585,1.585,0,0,1,1.191.449,1.754,1.754,0,0,1,.437,1.275,2.818,2.818,0,0,1-.049.583m12.826-4.98.34-1.87H73.483L69.912,24.534H75.3l1.482-8.429a2.875,2.875,0,0,0,1.2,1.494,4.041,4.041,0,0,0,2.2.546,5.923,5.923,0,0,0,3.037-.838,7.317,7.317,0,0,0,2.453-2.429,10.23,10.23,0,0,0,1.409-3.753,9.418,9.418,0,0,0,.17-1.8A5.485,5.485,0,0,0,85.993,5.49a4.29,4.29,0,0,0-3.328-1.385,5.128,5.128,0,0,0-2.393.546,4.837,4.837,0,0,0-1.737,1.494m3.085,4.98a2.905,2.905,0,0,1-.863,1.7,2.226,2.226,0,0,1-1.542.607,1.582,1.582,0,0,1-1.19-.449,1.751,1.751,0,0,1-.438-1.275,2.79,2.79,0,0,1,.049-.583,2.9,2.9,0,0,1,.863-1.7,2.225,2.225,0,0,1,1.542-.607,1.585,1.585,0,0,1,1.191.449,1.754,1.754,0,0,1,.437,1.275,2.818,2.818,0,0,1-.049.583m14.065-7.02a8.474,8.474,0,0,0-3.777.85,7.817,7.817,0,0,0-2.9,2.441,8.91,8.91,0,0,0-1.555,3.729,8.7,8.7,0,0,0-.146,1.555A5.155,5.155,0,0,0,88.9,16.7a6.17,6.17,0,0,0,4.312,1.445,8.072,8.072,0,0,0,3.243-.668,8.465,8.465,0,0,0,2.684-1.822,7.214,7.214,0,0,0,1.676-2.611H95.1a1.589,1.589,0,0,1-1.409.8q-1.166,0-1.166-1.36a2.706,2.706,0,0,1,.024-.413H101.2A9.786,9.786,0,0,0,101.467,11a8.4,8.4,0,0,0,.146-1.506,5.047,5.047,0,0,0-1.6-3.947,6.217,6.217,0,0,0-4.324-1.445m.51,5.757H92.965a1.958,1.958,0,0,1,1.968-1.53,1.434,1.434,0,0,1,.923.291,1.053,1.053,0,0,1,.364.874,2.028,2.028,0,0,1-.024.365M108.706,6.8l.437-2.526H103.75l-2.429,13.7h5.393l1-5.611a2.7,2.7,0,0,1,1.057-1.895,4.275,4.275,0,0,1,2.344-.534h1.53l1-5.758a5.324,5.324,0,0,0-2.587.717A8.709,8.709,0,0,0,108.706,6.8" transform="translate(0)" fill="#fff"/>
</svg>
