<svg xmlns="http://www.w3.org/2000/svg" xmlns:xlink="http://www.w3.org/1999/xlink" width="234.23" height="200" viewBox="0 0 234.23 200">
  <defs>
    <clipPath id="clip-path">
      <rect id="사각형_2662" data-name="사각형 2662" width="234.23" height="200" fill="none"/>
    </clipPath>
  </defs>
  <g id="img_nocart" clip-path="url(#clip-path)">
    <path id="패스_7040" data-name="패스 7040" d="M227.873,71.615l-3.1-.674-.7-3.1a.241.241,0,0,0-.47,0l-.706,3.109-3.1.735a.241.241,0,0,0,0,.47l3.1.674.7,3.1a.241.241,0,0,0,.47,0l.706-3.109,3.1-.735a.241.241,0,0,0,0-.47" fill="#4f3cc9"/>
    <path id="패스_7041" data-name="패스 7041" d="M32.187,95.238l-3.1-.674-.7-3.1a.241.241,0,0,0-.47,0l-.706,3.109-3.1.735a.241.241,0,0,0,0,.47l3.1.674.7,3.1a.241.241,0,0,0,.47,0l.706-3.109,3.1-.735a.241.241,0,0,0,0-.47" fill="#4f3cc9"/>
    <path id="패스_7042" data-name="패스 7042" d="M212.217,59.207l-1.6-.349-.363-1.6a.125.125,0,0,0-.243,0l-.366,1.608-1.6.38a.124.124,0,0,0-.1.122.126.126,0,0,0,.1.121l1.6.349.364,1.6a.125.125,0,0,0,.243,0l.365-1.608,1.6-.38a.125.125,0,0,0,0-.243" fill="#4f3cc9"/>
    <path id="패스_7043" data-name="패스 7043" d="M0,199.769H40.465a6.972,6.972,0,0,0-3.7-7.212,3.187,3.187,0,0,0,.542-2.777.759.759,0,0,0-1.308,0c.032-2.17-1.053-2.553-1.053-2.553-.766-.191-1.022,1.309-1.022,1.309-2.3-2.394-4.531-1.085-4.531-1.085a3.341,3.341,0,0,0,.159-1.66c-.415-.542-.861.16-.861.16.127-2.9-.926-3.032-.926-3.032-1.053-.032-.861,2.2-.861,2.2a4.824,4.824,0,0,0-3.288-2.2c-2.744-.032-4.116,2.84-4.116,2.84.191-3.414-1.053-3.414-1.053-3.414-1.4.287-.511,3.989-.511,3.989a4.739,4.739,0,0,0-3.7-1.181c-3.319.574-4.244,5.234-4.244,5.234-.926-1.309-1.564-.99-1.564-.99-.894.479-.447,1.851-.447,1.851-2.936.734-.638,1.309-.638,1.309a4.3,4.3,0,0,0-.957,1.34C1.021,193.833,0,199.769,0,199.769" fill="#4f3cc9"/>
    <path id="패스_7044" data-name="패스 7044" d="M176.762,199.769h57.406c.725-7.606-5.251-10.232-5.251-10.232,1.449-2.4.769-3.939.769-3.939a1.077,1.077,0,0,0-1.856,0c.045-3.078-1.494-3.621-1.494-3.621-1.086-.272-1.449,1.856-1.449,1.856-3.259-3.4-6.428-1.539-6.428-1.539a4.752,4.752,0,0,0,.226-2.355c-.589-.769-1.222.227-1.222.227.181-4.12-1.313-4.3-1.313-4.3-1.494-.046-1.223,3.124-1.223,3.124-2.173-2.988-4.663-3.124-4.663-3.124-3.893-.046-5.84,4.029-5.84,4.029.272-4.844-1.494-4.844-1.494-4.844-1.992.407-.724,5.659-.724,5.659a6.725,6.725,0,0,0-5.252-1.675c-4.709.815-6.021,7.425-6.021,7.425-1.313-1.857-2.219-1.4-2.219-1.4-1.268.679-.634,2.626-.634,2.626-4.165,1.041-.9,1.856-.9,1.856a6.1,6.1,0,0,0-1.358,1.9c-7.606-.091-9.055,8.33-9.055,8.33" fill="#4f3cc9"/>
    <path id="패스_7045" data-name="패스 7045" d="M96.725,199.123H10.2C9.109,187.659,18.117,183.7,18.117,183.7c-2.184-3.617-1.16-5.937-1.16-5.937,1.364-1.911,2.8,0,2.8,0-.068-4.64,2.252-5.459,2.252-5.459,1.638-.409,2.184,2.8,2.184,2.8,4.913-5.118,9.689-2.32,9.689-2.32a7.153,7.153,0,0,1-.341-3.549c.887-1.16,1.842.342,1.842.342-.272-6.21,1.979-6.483,1.979-6.483,2.252-.068,1.843,4.708,1.843,4.708,3.275-4.5,7.028-4.708,7.028-4.708,5.868-.068,8.8,6.073,8.8,6.073-.41-7.3,2.251-7.3,2.251-7.3,3,.614,1.092,8.529,1.092,8.529,4.231-3.343,7.916-2.524,7.916-2.524,7.1,1.228,9.075,11.19,9.075,11.19,1.979-2.8,3.344-2.115,3.344-2.115,1.91,1.024.955,3.958.955,3.958,6.278,1.569,1.365,2.8,1.365,2.8a9.2,9.2,0,0,1,2.047,2.866c11.463-.137,13.647,12.555,13.647,12.555" fill="#f9d571"/>
    <path id="패스_7046" data-name="패스 7046" d="M97.763,200H9.406l-.076-.792c-.934-9.81,5.28-14.47,7.593-15.852-1.8-3.516-.813-5.837-.767-5.941l.037-.083.052-.073a2.5,2.5,0,0,1,2.019-1.215,2.008,2.008,0,0,1,.694.1c.45-3.805,2.652-4.629,2.757-4.666l.079-.023a1.928,1.928,0,0,1,1.568.264,3.711,3.711,0,0,1,1.277,1.764,8.847,8.847,0,0,1,8.029-2.07,6.569,6.569,0,0,1,.021-2.393l.044-.176.11-.142a1.741,1.741,0,0,1,1.5-.782,1.244,1.244,0,0,1,.151.013c.164-5.115,2.3-5.653,2.761-5.71l.079-.007a2.177,2.177,0,0,1,1.679.694,4.706,4.706,0,0,1,1,2.578,10.242,10.242,0,0,1,6.166-3.27l.037,0h.11a10.2,10.2,0,0,1,7.834,4.058,7.213,7.213,0,0,1,1.5-4.465,2.337,2.337,0,0,1,1.623-.819h.089l.087.016a2.534,2.534,0,0,1,1.647,1.169c.98,1.542.805,4.353.519,6.315a10.3,10.3,0,0,1,6.831-1.481c5.8,1.015,8.392,7.171,9.329,10.207,1.8-1.724,3.143-1.142,3.316-1.055a3.74,3.74,0,0,1,1.609,4.116c2.135.62,3.024,1.294,3.024,2.252a1.84,1.84,0,0,1-1.166,1.526,11.36,11.36,0,0,1,1.053,1.638c11.59.263,13.943,13.148,13.965,13.28Zm-86.75-1.75H95.629c-.767-2.89-3.666-10.807-12.369-10.807-.057,0-.114,0-.172,0l-.576.007-.234-.528a8.356,8.356,0,0,0-1.807-2.549l-1.324-1.1,1.672-.418a4.882,4.882,0,0,0,.9-.331,10.3,10.3,0,0,0-2.268-.769l-.91-.228.29-.892c.006-.019.68-2.182-.48-2.883-.27-.046-1.125.194-2.273,1.816l-1.175,1.663-.4-2c-.019-.093-1.952-9.39-8.367-10.5l-.04-.009c-.131-.026-3.365-.66-7.183,2.358l-1.986,1.568.593-2.459c.488-2.031.949-5.747.1-7.075a.841.841,0,0,0-.381-.351c-.539.217-1.607,1.646-1.343,6.353l.248,4.427-1.911-4c-.026-.054-2.76-5.627-7.978-5.576-.263.023-3.458.365-6.356,4.35l-1.847,2.54.268-3.129c.1-1.141-.024-3.016-.589-3.612a.417.417,0,0,0-.264-.145c-.447.215-1.4,1.53-1.222,5.566l.143,3.268-1.756-2.76a1.492,1.492,0,0,0-.293-.318,7.288,7.288,0,0,0,.365,2.794l.675,2.159-1.952-1.143c-.168-.1-4.268-2.357-8.616,2.171l-1.2,1.253-.292-1.712a3.882,3.882,0,0,0-.922-2.065.192.192,0,0,0-.139-.039c-.235.121-1.69,1.008-1.637,4.607l.04,2.689-1.615-2.151a1.308,1.308,0,0,0-.765-.5h-.007c-.2,0-.413.223-.55.4-.122.379-.574,2.232,1.134,5.062l.515.852-.912.4c-.334.148-8.011,3.685-7.456,13.745m67.294-20.526.018.011-.018-.011" fill="#4f3cc9"/>
    <path id="패스_7047" data-name="패스 7047" d="M226.544,199.123H140.02c-1.092-11.464,7.916-15.421,7.916-15.421-2.184-3.617-1.16-5.937-1.16-5.937,1.364-1.911,2.8,0,2.8,0-.068-4.64,2.252-5.459,2.252-5.459,1.638-.409,2.184,2.8,2.184,2.8,4.913-5.118,9.689-2.32,9.689-2.32a7.153,7.153,0,0,1-.341-3.549c.887-1.16,1.842.342,1.842.342-.272-6.21,1.979-6.483,1.979-6.483,2.252-.068,1.843,4.708,1.843,4.708,3.275-4.5,7.028-4.708,7.028-4.708,5.868-.068,8.8,6.073,8.8,6.073-.41-7.3,2.251-7.3,2.251-7.3,3,.614,1.092,8.529,1.092,8.529,4.231-3.343,7.916-2.524,7.916-2.524,7.1,1.228,9.075,11.19,9.075,11.19,1.979-2.8,3.344-2.115,3.344-2.115,1.91,1.024.955,3.958.955,3.958,6.278,1.569,1.365,2.8,1.365,2.8a9.2,9.2,0,0,1,2.047,2.866c11.463-.137,13.647,12.555,13.647,12.555" fill="#f9d571"/>
    <path id="패스_7048" data-name="패스 7048" d="M227.582,200H139.225l-.076-.792c-.934-9.81,5.279-14.47,7.592-15.852-1.795-3.516-.812-5.837-.766-5.941l.036-.083.052-.073a2.505,2.505,0,0,1,2.02-1.215,1.967,1.967,0,0,1,.693.1c.45-3.805,2.653-4.629,2.758-4.666l.079-.023a1.932,1.932,0,0,1,1.568.264,3.7,3.7,0,0,1,1.276,1.764,8.85,8.85,0,0,1,8.03-2.07,6.569,6.569,0,0,1,.021-2.393l.044-.176.11-.142a1.747,1.747,0,0,1,1.5-.782,1.506,1.506,0,0,1,.151.013c.164-5.115,2.3-5.653,2.761-5.71l.079-.007a2.183,2.183,0,0,1,1.679.694,4.706,4.706,0,0,1,1.005,2.578,10.239,10.239,0,0,1,6.165-3.27l.038,0h.109a10.2,10.2,0,0,1,7.835,4.058,7.22,7.22,0,0,1,1.5-4.465,2.338,2.338,0,0,1,1.624-.819h.089l.087.016a2.534,2.534,0,0,1,1.647,1.169c.98,1.542.805,4.353.518,6.315a10.3,10.3,0,0,1,6.831-1.481c5.8,1.015,8.393,7.171,9.329,10.207,1.8-1.724,3.143-1.142,3.317-1.055a3.741,3.741,0,0,1,1.609,4.116c2.135.62,3.024,1.294,3.024,2.252a1.84,1.84,0,0,1-1.166,1.526,11.255,11.255,0,0,1,1.052,1.638c11.591.263,13.944,13.148,13.966,13.28Zm-86.751-1.75h84.617c-.767-2.89-3.666-10.807-12.369-10.807-.057,0-.114,0-.172,0l-.576.007-.234-.528a8.347,8.347,0,0,0-1.808-2.549l-1.323-1.1,1.671-.418a4.866,4.866,0,0,0,.9-.331,10.3,10.3,0,0,0-2.268-.769l-.911-.228.291-.892c.006-.019.68-2.182-.48-2.883-.274-.046-1.126.2-2.273,1.816l-1.176,1.663-.4-2c-.019-.093-1.952-9.39-8.367-10.5l-.04-.009c-.132-.026-3.366-.658-7.184,2.358l-1.985,1.568.593-2.459c.488-2.031.948-5.747.1-7.075a.835.835,0,0,0-.38-.351c-.539.217-1.607,1.646-1.343,6.353l.248,4.427-1.911-4c-.027-.054-2.747-5.576-7.918-5.576h-.061c-.262.023-3.457.365-6.355,4.35l-1.847,2.54.268-3.129c.1-1.141-.024-3.016-.589-3.612a.417.417,0,0,0-.264-.145c-.447.215-1.4,1.53-1.223,5.566l.144,3.267-1.756-2.759a1.518,1.518,0,0,0-.293-.318,7.288,7.288,0,0,0,.365,2.794l.675,2.159-1.952-1.143c-.168-.1-4.268-2.357-8.616,2.171l-1.2,1.253-.292-1.712a3.889,3.889,0,0,0-.922-2.065.2.2,0,0,0-.139-.039c-.236.121-1.69,1.008-1.637,4.607l.039,2.689-1.614-2.151a1.307,1.307,0,0,0-.766-.5H148.1c-.2,0-.413.223-.55.4-.122.379-.574,2.232,1.134,5.062l.514.852-.912.4c-.333.148-8.011,3.685-7.456,13.745m67.3-20.526.018.011-.018-.011" fill="#4f3cc9"/>
    <path id="패스_7049" data-name="패스 7049" d="M55.121,194.553a8.636,8.636,0,0,0-3.258,4.57H37.924a11.969,11.969,0,0,1-.735-5.365,4.913,4.913,0,0,0,1.987,2.087c1.142-2.087.695-7.7.695-7.7,2.087,1.937,1.888,6.259,1.888,6.259,1.479-5.273,4.864-6.88,4.917-6.9-2.185,3.576-2.284,8.841-2.284,8.841,2.682-4.272,7.8-3.775,7.8-3.775a5.749,5.749,0,0,0-3.874,5.017c2.533-2.831,6.8-3.03,6.8-3.03" fill="#4f3cc9"/>
    <path id="패스_7050" data-name="패스 7050" d="M84.74,89.492l8.053-2.941.8-22.9c-9.846-7.474-4.333-12.828-4.333-12.828l.42-10.48h39.3c7.316,42.7-11.3,38.62-11.3,38.62l.47,8.9,9.554,3.42-.06,18.159H83.374Z" fill="#fff"/>
    <path id="패스_7051" data-name="패스 7051" d="M128.516,110.311H82.436L83.9,88.865l8.033-2.934L92.7,64.066c-3.7-2.9-5.664-5.858-5.843-8.81a6.89,6.89,0,0,1,1.538-4.786l.441-11.005h40.879l.125.727c3.239,18.907,1.93,31.312-3.891,36.87a10.016,10.016,0,0,1-7.341,2.874l.386,7.293,9.587,3.432Zm-44.206-1.75h42.462l.054-16.669-9.519-3.408-.562-10.625,1.122.246a8.08,8.08,0,0,0,6.9-2.339c3.636-3.5,7.163-12.344,3.466-34.552H90.516l-.4,9.989-.25.244a5.023,5.023,0,0,0-1.261,3.738c.166,2.469,2.072,5.154,5.513,7.766l.361.274L93.646,87.17l-8.073,2.948Z" fill="#4f3cc9"/>
    <path id="패스_7052" data-name="패스 7052" d="M106.6,42.637s8.41,5.444,22.75,0l.7,5.013a12.909,12.909,0,0,0,4.625-12.839s-.85-5.274-9.7-6.3c0,0-3.743-7.656-11.909-4.424a10.093,10.093,0,0,0-12.079,1.872s-5.276-.17-6.125,4.083c0,0-5.6-.659-9.04,3.231a8.728,8.728,0,0,0-2.12,5.825c.013,3.3.308,9,5.593,12.2,0,0,6.194-4.193,8.118,4.1l3.062.851.681-4.764s4.594-1.361,5.444-8.847" fill="#4f3cc9"/>
    <path id="패스_7053" data-name="패스 7053" d="M126.935,60.574a6.113,6.113,0,1,1,6.113-6.113,6.12,6.12,0,0,1-6.113,6.113m0-11.059a4.946,4.946,0,1,0,4.946,4.946,4.952,4.952,0,0,0-4.946-4.946" fill="#4f3cc9"/>
    <path id="패스_7054" data-name="패스 7054" d="M113.665,60.574a6.113,6.113,0,1,1,6.113-6.113,6.12,6.12,0,0,1-6.113,6.113m0-11.059a4.946,4.946,0,1,0,4.946,4.946,4.952,4.952,0,0,0-4.946-4.946" fill="#4f3cc9"/>
    <path id="패스_7055" data-name="패스 7055" d="M125.319,55.227A1.531,1.531,0,1,0,126.85,53.7a1.531,1.531,0,0,0-1.531,1.531" fill="#4f3cc9"/>
    <path id="패스_7056" data-name="패스 7056" d="M112.134,55.312a1.531,1.531,0,1,0,1.531-1.531,1.531,1.531,0,0,0-1.531,1.531" fill="#4f3cc9"/>
    <rect id="사각형_2660" data-name="사각형 2660" width="1.167" height="7.924" transform="translate(100.193 53.589) rotate(-84.409)" fill="#4f3cc9"/>
    <path id="패스_7057" data-name="패스 7057" d="M124.11,64.213l-3.445-.268.09-1.163,1.69.131-3.033-9.068,1.106-.37Z" fill="#4f3cc9"/>
    <path id="패스_7058" data-name="패스 7058" d="M121.861,48.878l-.739-.9c.123-.1,3.068-2.447,8.876-1.719l-.146,1.157c-5.316-.665-7.965,1.444-7.991,1.465" fill="#4f3cc9"/>
    <path id="패스_7059" data-name="패스 7059" d="M117.92,48.743a7.532,7.532,0,0,0-9.626-.831l-.621-.988a8.807,8.807,0,0,1,11.094,1.017Z" fill="#4f3cc9"/>
    <path id="패스_7060" data-name="패스 7060" d="M122.813,70.5a1.34,1.34,0,0,0-.193-2.056,3.165,3.165,0,0,0-1.7-.556,11,11,0,0,0-4.656,1.5.455.455,0,0,0-.087.742c1.092.962,4.435,2.657,6.635.369" fill="#4f3cc9"/>
    <path id="패스_7061" data-name="패스 7061" d="M147.822,71.173l4.362,7.893,6.439,32.195-16.2-9.762v34.48l44.034,7.893L162.985,72.419,152.863,43.582a5.462,5.462,0,0,0-3.428-3.374l-1-.333a7.759,7.759,0,0,0-6.34.646l-8.815,5.1V61.411a33.654,33.654,0,0,1,6.439,6.023s3.531,3.947,8.1,3.739" fill="#fff"/>
    <path id="패스_7062" data-name="패스 7062" d="M187.745,144.992l-46.2-8.281V99.95l15.83,9.539-6.024-30.118-4.043-7.317c-4.651-.085-8.091-3.869-8.24-4.036l-.06-.075a32.976,32.976,0,0,0-6.236-5.821l-.366-.261V45.12l9.252-5.356a8.634,8.634,0,0,1,7.054-.719l1,.333a6.382,6.382,0,0,1,3.978,3.915L163.81,72.129ZM143.3,135.247l41.871,7.505-23.014-70.06-10.116-28.82a4.619,4.619,0,0,0-2.879-2.834l-1-.333a6.888,6.888,0,0,0-5.625.573l-8.378,4.851V60.967A32.756,32.756,0,0,1,140.4,66.88c.325.346,3.5,3.6,7.382,3.419l.542-.025,4.691,8.487.026.133,6.828,34.14L143.3,103.048Z" fill="#4f3cc9"/>
    <path id="패스_7063" data-name="패스 7063" d="M121.537,90.706c-1.872,5.1-9.409,18.422-33.209-1.842a2.127,2.127,0,0,0-2.133-.372L59.539,98.606a16.009,16.009,0,0,0-8.524,7.581L35.138,136.706l26.068,6.335-.623,55.874,99.078.208-9.242-76.334V99.041l-26.542-9.43a1.836,1.836,0,0,0-2.34,1.1" fill="#02b763"/>
    <path id="패스_7064" data-name="패스 7064" d="M160.649,200,59.7,199.788l.625-56.061-26.477-6.435,16.392-31.509a16.868,16.868,0,0,1,8.991-7.995L85.885,87.674A3,3,0,0,1,88.9,88.2c9.867,8.4,17.891,11.869,23.846,10.305,4.816-1.265,7.064-5.616,7.974-8.1a2.722,2.722,0,0,1,3.454-1.618l27.123,9.637v24.313Zm-99.181-1.958,97.206.2-9.131-75.4V99.658l-25.958-9.223a.964.964,0,0,0-1.226.572c-1.029,2.8-3.588,7.721-9.172,9.187-6.543,1.718-15.1-1.87-25.425-10.664a1.252,1.252,0,0,0-1.256-.22L59.851,99.424a15.113,15.113,0,0,0-8.059,7.167L36.43,136.119l25.659,6.236Z" fill="#4f3cc9"/>
    <path id="패스_7065" data-name="패스 7065" d="M151.387,92.348l-26.933,15.694.692,78.838,26.934-14.863Z" fill="#4f3cc9"/>
    <path id="패스_7066" data-name="패스 7066" d="M179.5,108.665,152.08,93.5v78.515L179.5,185.726Z" fill="#fff"/>
    <path id="패스_7067" data-name="패스 7067" d="M180.373,187.141l-29.168-14.583V92.018l29.168,16.131Zm-27.418-15.665,25.668,12.834V109.181L152.955,94.986Z" fill="#4f3cc9"/>
    <path id="패스_7068" data-name="패스 7068" d="M207.954,93.5,179.5,108.665l.692,78.215,27.764-21.3Z" fill="#4f3cc9"/>
    <path id="패스_7069" data-name="패스 7069" d="M124.454,108.042v77.684L96.828,170.978V93.5Z" fill="#fff"/>
    <path id="패스_7070" data-name="패스 7070" d="M125.329,187.185,95.953,171.5V92.052l29.376,15.462ZM97.7,170.454l25.876,13.813v-75.7L97.7,94.951Z" fill="#4f3cc9"/>
    <path id="패스_7071" data-name="패스 7071" d="M138.579,47.6l-6.838,1.447a5,5,0,0,0,0,9.777l6.838,1.446Z" fill="#4f3cc9"/>
    <path id="패스_7072" data-name="패스 7072" d="M150.107,63.611h-4.1a10.15,10.15,0,1,1,0-20.292h4.1Z" fill="#02b763"/>
    <path id="패스_7073" data-name="패스 7073" d="M150.981,64.487H146a11.025,11.025,0,1,1,0-22.042h4.977ZM146,44.195a9.275,9.275,0,1,0,0,18.542h3.227V44.195Z" fill="#4f3cc9"/>
    <path id="패스_7074" data-name="패스 7074" d="M160.7,53.414a10.49,10.49,0,1,1-10.489-10.489A10.489,10.489,0,0,1,160.7,53.414" fill="#fff"/>
    <path id="패스_7075" data-name="패스 7075" d="M150.21,64.486a11.073,11.073,0,1,1,11.073-11.073A11.085,11.085,0,0,1,150.21,64.486m0-20.979a9.906,9.906,0,1,0,9.906,9.906,9.917,9.917,0,0,0-9.906-9.906" fill="#4f3cc9"/>
    <path id="패스_7076" data-name="패스 7076" d="M150.21,62.2A8.788,8.788,0,1,1,159,53.413,8.8,8.8,0,0,1,150.21,62.2m0-16.409a7.622,7.622,0,1,0,7.622,7.621,7.63,7.63,0,0,0-7.622-7.621" fill="#4f3cc9"/>
    <path id="패스_7077" data-name="패스 7077" d="M116.146,47.6l-6.838,1.447a5,5,0,0,0,0,9.777l6.838,1.446Z" fill="#02b763"/>
    <path id="패스_7078" data-name="패스 7078" d="M117.021,61.347l-7.9-1.67a5.872,5.872,0,0,1,0-11.489l7.894-1.67Zm-1.75-12.67L109.489,49.9a4.122,4.122,0,0,0,0,8.065l5.782,1.224Z" fill="#4f3cc9"/>
    <path id="패스_7079" data-name="패스 7079" d="M127.674,63.611h-4.1a10.15,10.15,0,1,1,0-20.292h4.1Z" fill="#02b763"/>
    <path id="패스_7080" data-name="패스 7080" d="M128.548,64.487h-4.977a11.025,11.025,0,1,1,0-22.042h4.977Zm-4.977-20.292a9.275,9.275,0,1,0,0,18.542H126.8V44.195Z" fill="#4f3cc9"/>
    <path id="패스_7081" data-name="패스 7081" d="M138.267,53.414a10.489,10.489,0,1,1-10.489-10.489,10.489,10.489,0,0,1,10.489,10.489" fill="#fff"/>
    <path id="패스_7082" data-name="패스 7082" d="M127.778,64.486a11.073,11.073,0,1,1,11.073-11.073,11.085,11.085,0,0,1-11.073,11.073m0-20.979a9.906,9.906,0,1,0,9.906,9.906,9.917,9.917,0,0,0-9.906-9.906" fill="#4f3cc9"/>
    <path id="패스_7083" data-name="패스 7083" d="M127.778,62.2a8.788,8.788,0,1,1,8.788-8.788,8.8,8.8,0,0,1-8.788,8.788m0-16.409a7.622,7.622,0,1,0,7.621,7.621,7.63,7.63,0,0,0-7.621-7.621" fill="#4f3cc9"/>
    <path id="패스_7084" data-name="패스 7084" d="M37.423,137.121,61.1,142.937l-6.231,9.555,25.964-3.324,7.086-11.446a6.073,6.073,0,0,1,2.941-2.459c4.281-1.688,14.854-2.9,23.061.607a2.281,2.281,0,0,1-.478,3.836s4.9,1.817.208,4.893c0,0,2.493,3.115-1.039,4.569,0,0,.831,2.493-4.985,3.324l-10.177,1.454s-5.609,9.762-20.772,13.085l-42.319,7.926a8.512,8.512,0,0,1-9.25-12.033Z" fill="#fff"/>
    <path id="패스_7085" data-name="패스 7085" d="M32.774,175.98a9.39,9.39,0,0,1-8.452-13.432L36.941,136.1l25.569,6.28-5.871,9,23.672-3.03,6.867-11.093a7,7,0,0,1,3.364-2.812c4.67-1.841,15.44-2.918,23.725.616a2.8,2.8,0,0,1,1.369,2.444,3.053,3.053,0,0,1-.637,2.032,3.26,3.26,0,0,1,1.548,2.221c.119,1.049-.457,2.077-1.712,3.066a3.952,3.952,0,0,1,.451,2.787,3.323,3.323,0,0,1-1.766,2.092,2.609,2.609,0,0,1-.392,1.151c-.779,1.261-2.587,2.1-5.374,2.5l-9.775,1.4c-1.219,1.879-7.247,10.094-21.111,13.132l-42.346,7.931a9.44,9.44,0,0,1-1.748.163m5.133-37.839L25.9,163.3a7.637,7.637,0,0,0,8.3,10.8l42.32-7.925c14.541-3.188,20.12-12.569,20.174-12.663l.213-.368.422-.061,10.177-1.454c2.869-.41,3.8-1.2,4.1-1.634a.821.821,0,0,0,.174-.563l-.354-.8.858-.266a1.966,1.966,0,0,0,1.309-1.181,2.8,2.8,0,0,0-.62-2.033l-.6-.751.805-.527c1.095-.717,1.69-1.413,1.635-1.908-.072-.636-1.176-1.25-1.667-1.432l-1.838-.682,1.735-.913a1.418,1.418,0,0,0,.846-1.169,1.544,1.544,0,0,0-.331-1.1c-8.113-3.448-18.569-2.084-22.371-.586a5.165,5.165,0,0,0-2.518,2.105l-7.305,11.8L53.1,153.6,59.7,143.492Zm73.878,11.3Z" fill="#4f3cc9"/>
    <path id="패스_7086" data-name="패스 7086" d="M105.426,138.956a45.561,45.561,0,0,1,8.355.854Z" fill="#fff"/>
    <path id="패스_7087" data-name="패스 7087" d="M113.58,140.662a44.844,44.844,0,0,0-8.159-.83l.009-1.75a45.834,45.834,0,0,1,8.55.877Z" fill="#4f3cc9"/>
    <path id="패스_7088" data-name="패스 7088" d="M105.656,143.48a25.706,25.706,0,0,1,7.893,1.223Z" fill="#fff"/>
    <path id="패스_7089" data-name="패스 7089" d="M113.271,145.532a24.855,24.855,0,0,0-7.59-1.178l-.049-1.749a26.394,26.394,0,0,1,8.195,1.268Z" fill="#4f3cc9"/>
    <path id="패스_7090" data-name="패스 7090" d="M105.357,148.026s4.454-.415,7.362,1.246Z" fill="#fff"/>
    <path id="패스_7091" data-name="패스 7091" d="M112.285,150.032c-2.628-1.5-6.806-1.138-6.847-1.135l-.163-1.742c.192-.018,4.765-.421,7.877,1.358Z" fill="#4f3cc9"/>
    <path id="패스_7092" data-name="패스 7092" d="M70.138,128.917l-8.932,14.332Z" fill="#fff"/>
    <rect id="사각형_2661" data-name="사각형 2661" width="16.887" height="1.75" transform="matrix(0.529, -0.849, 0.849, 0.529, 60.462, 142.784)" fill="#4f3cc9"/>
    <path id="패스_7093" data-name="패스 7093" d="M157.011,18a20.138,20.138,0,0,1,3.152-3.417,17.432,17.432,0,0,0,2.359-2.447,3.845,3.845,0,0,0,.771-2.358,3.6,3.6,0,0,0-1.5-3,6.444,6.444,0,0,0-4.011-1.146,8.657,8.657,0,0,0-5.947,2.013A2.488,2.488,0,1,1,148.65,3.83a12.781,12.781,0,0,1,2.565-1.566A16.633,16.633,0,0,1,158.268.875a13.082,13.082,0,0,1,7.869,2.138A6.888,6.888,0,0,1,169.068,8.9a7.88,7.88,0,0,1-.595,3.174,8.73,8.73,0,0,1-1.433,2.315,28.244,28.244,0,0,1-2.2,2.182,16.942,16.942,0,0,0-2.49,2.645,4.581,4.581,0,0,0-.816,2.733h-5.6A6.787,6.787,0,0,1,157.011,18m-.793,13.489a3.326,3.326,0,0,1-.992-2.447,3.254,3.254,0,0,1,.992-2.424,3.477,3.477,0,0,1,2.535-.97,3.421,3.421,0,0,1,2.49.97,3.25,3.25,0,0,1,.992,2.424,3.322,3.322,0,0,1-.992,2.447,3.379,3.379,0,0,1-2.49.992,3.433,3.433,0,0,1-2.535-.992" fill="#f4997a"/>
    <path id="패스_7094" data-name="패스 7094" d="M158.753,33.358A4.292,4.292,0,0,1,155.6,32.11a4.185,4.185,0,0,1-1.249-3.066,4.113,4.113,0,0,1,1.256-3.05,4.336,4.336,0,0,1,3.146-1.219,4.28,4.28,0,0,1,3.1,1.219,4.114,4.114,0,0,1,1.255,3.05,4.181,4.181,0,0,1-1.248,3.065,4.235,4.235,0,0,1-3.109,1.249m0-6.833a2.614,2.614,0,0,0-1.923.72,2.394,2.394,0,0,0-.729,1.8,2.461,2.461,0,0,0,.736,1.828,2.569,2.569,0,0,0,1.916.736,2.514,2.514,0,0,0,1.872-.736,2.461,2.461,0,0,0,.736-1.828,2.394,2.394,0,0,0-.729-1.8,2.558,2.558,0,0,0-1.879-.72m3.652-3.7h-7.348v-.875a7.663,7.663,0,0,1,1.235-4.442h0a21.013,21.013,0,0,1,3.289-3.571,16.772,16.772,0,0,0,2.239-2.317,2.966,2.966,0,0,0,.6-1.836,2.715,2.715,0,0,0-1.156-2.3,5.629,5.629,0,0,0-3.48-.966,7.749,7.749,0,0,0-5.368,1.794,3.382,3.382,0,0,1-4.065.309,3.368,3.368,0,0,1-.242-5.472,13.839,13.839,0,0,1,2.739-1.672A17.582,17.582,0,0,1,158.268,0a13.982,13.982,0,0,1,8.384,2.306A7.751,7.751,0,0,1,169.943,8.9a8.793,8.793,0,0,1-.668,3.524,9.629,9.629,0,0,1-1.579,2.544,29.307,29.307,0,0,1-2.273,2.252,16.184,16.184,0,0,0-2.364,2.5,3.7,3.7,0,0,0-.654,2.226Zm-5.555-1.75h3.863a5.256,5.256,0,0,1,.92-2.365,17.654,17.654,0,0,1,2.62-2.79,27.452,27.452,0,0,0,2.132-2.11,7.886,7.886,0,0,0,1.286-2.084,7.055,7.055,0,0,0,.522-2.825,6.007,6.007,0,0,0-2.572-5.178,12.3,12.3,0,0,0-7.353-1.97,15.846,15.846,0,0,0-6.685,1.308,11.98,11.98,0,0,0-2.392,1.459,1.612,1.612,0,0,0-.62,1.353,1.594,1.594,0,0,0,.732,1.277,1.625,1.625,0,0,0,1.954-.154,9.542,9.542,0,0,1,6.526-2.232,7.317,7.317,0,0,1,4.543,1.326,4.451,4.451,0,0,1,1.842,3.693,4.719,4.719,0,0,1-.944,2.881,18.082,18.082,0,0,1-2.479,2.578,19.341,19.341,0,0,0-3.014,3.26,5.459,5.459,0,0,0-.881,2.573" fill="#4f3cc9"/>
    <path id="패스_7095" data-name="패스 7095" d="M57.98,33.7a20.138,20.138,0,0,1,3.152-3.417,17.432,17.432,0,0,0,2.359-2.447,3.845,3.845,0,0,0,.771-2.358,3.6,3.6,0,0,0-1.5-3,6.444,6.444,0,0,0-4.011-1.146,8.657,8.657,0,0,0-5.947,2.013,2.488,2.488,0,1,1-3.186-3.819,12.781,12.781,0,0,1,2.565-1.566,16.633,16.633,0,0,1,7.053-1.389,13.082,13.082,0,0,1,7.869,2.138,6.888,6.888,0,0,1,2.931,5.885,7.88,7.88,0,0,1-.6,3.174,8.73,8.73,0,0,1-1.433,2.315,28.244,28.244,0,0,1-2.2,2.182,16.942,16.942,0,0,0-2.49,2.645,4.581,4.581,0,0,0-.816,2.733H56.9A6.787,6.787,0,0,1,57.98,33.7m-.793,13.489a3.326,3.326,0,0,1-.992-2.447,3.254,3.254,0,0,1,.992-2.424,3.477,3.477,0,0,1,2.535-.97,3.421,3.421,0,0,1,2.49.97,3.25,3.25,0,0,1,.992,2.424,3.322,3.322,0,0,1-.992,2.447,3.379,3.379,0,0,1-2.49.992,3.433,3.433,0,0,1-2.535-.992" fill="#f9d571"/>
    <path id="패스_7096" data-name="패스 7096" d="M59.721,49.055a4.293,4.293,0,0,1-3.154-1.248,4.188,4.188,0,0,1-1.248-3.065,4.114,4.114,0,0,1,1.255-3.051,4.338,4.338,0,0,1,3.147-1.219,4.282,4.282,0,0,1,3.1,1.219,4.113,4.113,0,0,1,1.255,3.051,4.184,4.184,0,0,1-1.248,3.065,4.238,4.238,0,0,1-3.109,1.248M57.805,46.57a2.572,2.572,0,0,0,1.916.735,2.517,2.517,0,0,0,1.872-.735,2.464,2.464,0,0,0,.736-1.828,2.4,2.4,0,0,0-.729-1.8,2.558,2.558,0,0,0-1.879-.72,2.611,2.611,0,0,0-1.923.721,2.391,2.391,0,0,0-.729,1.8,2.464,2.464,0,0,0,.736,1.828m5.568-8.051H56.024v-.875A7.673,7.673,0,0,1,57.259,33.2h0a21.009,21.009,0,0,1,3.289-3.571,16.66,16.66,0,0,0,2.239-2.317,2.966,2.966,0,0,0,.6-1.836,2.715,2.715,0,0,0-1.156-2.3,5.629,5.629,0,0,0-3.48-.966A7.749,7.749,0,0,0,53.383,24a3.379,3.379,0,0,1-4.065.309,3.368,3.368,0,0,1-.242-5.472,13.839,13.839,0,0,1,2.739-1.672,17.578,17.578,0,0,1,7.421-1.47A13.982,13.982,0,0,1,67.62,18,7.751,7.751,0,0,1,70.911,24.6a8.792,8.792,0,0,1-.668,3.523,9.629,9.629,0,0,1-1.579,2.544,28.812,28.812,0,0,1-2.274,2.252,16.31,16.31,0,0,0-2.363,2.5,3.7,3.7,0,0,0-.654,2.226Zm-5.555-1.75h3.863A5.256,5.256,0,0,1,62.6,34.4a17.646,17.646,0,0,1,2.62-2.79A27.644,27.644,0,0,0,67.353,29.5a7.908,7.908,0,0,0,1.286-2.085,7.053,7.053,0,0,0,.522-2.824,6.008,6.008,0,0,0-2.572-5.179,12.3,12.3,0,0,0-7.353-1.97,15.842,15.842,0,0,0-6.685,1.308,12,12,0,0,0-2.392,1.459,1.61,1.61,0,0,0-.62,1.353,1.594,1.594,0,0,0,.732,1.277,1.627,1.627,0,0,0,1.955-.154,9.537,9.537,0,0,1,6.525-2.231,7.317,7.317,0,0,1,4.543,1.325,4.451,4.451,0,0,1,1.842,3.693,4.719,4.719,0,0,1-.944,2.881,18.143,18.143,0,0,1-2.479,2.578A19.283,19.283,0,0,0,58.7,34.2a5.452,5.452,0,0,0-.882,2.573" fill="#4f3cc9"/>
  </g>
</svg>
