<svg width="182" height="131" viewBox="0 0 182 131" fill="none" xmlns="http://www.w3.org/2000/svg">
<mask id="mask0_630_4732" style="mask-type:luminance" maskUnits="userSpaceOnUse" x="2" y="0" width="180" height="130">
<path d="M2 0H182V130H2V0Z" fill="white"/>
</mask>
<g mask="url(#mask0_630_4732)">
<path fill-rule="evenodd" clip-rule="evenodd" d="M124.298 50.865C135.269 50.865 144.163 41.9712 144.163 31C144.163 20.0289 135.269 11.135 124.298 11.135C113.327 11.135 104.433 20.0289 104.433 31C104.433 35.3575 105.836 39.3873 108.215 42.6623C107.728 43.9183 106.711 45.5615 104.847 46.7265C102.058 48.4695 108.372 49.9188 113.401 47.6119C116.529 49.6685 120.274 50.865 124.298 50.865Z" fill="white"/>
<path d="M129.408 50.2016C137.903 47.9467 144.163 40.2044 144.163 31C144.163 20.0289 135.269 11.135 124.298 11.135C113.327 11.135 104.433 20.0289 104.433 31C104.433 35.3575 105.836 39.3872 108.215 42.6623C107.728 43.9183 106.711 45.5615 104.847 46.7265C102.058 48.4695 108.372 49.9188 113.401 47.6119C113.77 47.8686 114.675 48.4647 115.337 48.7958" stroke="black" stroke-width="1.09258" stroke-linecap="round"/>
<path fill-rule="evenodd" clip-rule="evenodd" d="M131.736 33.1722C132.565 33.1722 133.236 32.5007 133.236 31.6722C133.236 30.8438 132.565 30.1722 131.736 30.1722C130.908 30.1722 130.236 30.8438 130.236 31.6722C130.236 32.5007 130.908 33.1722 131.736 33.1722ZM125.787 31.6722C125.787 32.5007 125.116 33.1722 124.287 33.1722C123.459 33.1722 122.787 32.5007 122.787 31.6722C122.787 30.8438 123.459 30.1722 124.287 30.1722C125.116 30.1722 125.787 30.8438 125.787 31.6722ZM118.337 31.6722C118.337 32.5007 117.665 33.1722 116.837 33.1722C116.008 33.1722 115.337 32.5007 115.337 31.6722C115.337 30.8438 116.008 30.1722 116.837 30.1722C117.665 30.1722 118.337 30.8438 118.337 31.6722Z" fill="black"/>
<path d="M115.5 75.5C115.5 75.9 114.5 79 114 80.5L128.5 83.5C128.666 81.8333 129.5 78.1 131.5 76.5C133.5 74.9 135 71.8333 135.5 70.5C137 69.5 137 68.5 137 67C137 63.7716 134.5 63.5 133 62.5C132 59.5 130.5 59.5 129 60C128.6 58.4 125.5 57.6667 124 57.5C124.5 56 125.4 52 125 48C124.5 43 121.5 45 120.5 46C119.5 47 118.5 61 117.5 61C116.5 61 112 63.5 113 67C114.352 71.7351 115.5 75 115.5 75.5Z" fill="white"/>
<path d="M90.4534 133.563L90.264 132.206L91.4432 132.903L92.2912 133.405L100.309 135.465L100.311 135.466C107.806 137.418 112.808 135.832 116.254 132.802C119.745 129.732 121.734 125.099 122.99 120.791C124.245 116.485 126.097 107.045 127.641 98.642C128.411 94.449 129.102 90.527 129.6 87.6532C129.85 86.2163 130.051 85.0416 130.19 84.2262C130.232 83.9796 130.268 83.7658 130.298 83.5876L111.229 79.8241L103.576 102.869L103.576 102.869L103.504 103.084L103.261 103.816L103.259 103.822L103.259 103.822L102.633 103.614L102.006 103.406L102.006 103.406L102.18 102.884C96.9364 88.2769 89.0185 80.457 82.4386 76.2832C79.1279 74.1831 76.1466 73.0003 74 72.3432C72.9267 72.0147 72.0626 71.8178 71.4709 71.7034C71.2574 71.6621 71.0794 71.6316 70.94 71.6096C70.9357 71.6141 70.9313 71.6185 70.9268 71.6231C70.7083 71.8442 70.3727 72.0851 69.8639 72.2883C68.8561 72.6909 67.1587 72.9501 64.2705 72.6231C61.3965 72.2977 59.6355 71.7996 58.5739 71.3634C58.0421 71.1449 57.6826 70.9406 57.4457 70.7789C57.3872 70.739 57.3362 70.7017 57.2919 70.6675C57.2634 70.6665 57.2321 70.6655 57.198 70.6646C56.9879 70.6592 56.6728 70.6565 56.263 70.6685C55.4433 70.6926 54.2453 70.7756 52.7513 71.0125C49.7635 71.4862 45.5932 72.5754 40.8969 75.0402C31.5184 79.9625 19.9714 90.4088 11.5765 112.574C3.13346 134.867 -2.35379 150.386 -5.72957 160.331C-7.41743 165.303 -8.57741 168.881 -9.31502 171.215C-9.68382 172.382 -9.94704 173.237 -10.1179 173.801C-10.1255 173.826 -10.1329 173.85 -10.1402 173.874L16.0927 176.6L19.9892 161.856L20.1191 161.365L20.6272 161.365L94.3189 161.354L94.1096 159.844C93.9081 158.39 93.6166 156.288 93.2568 153.698C92.5374 148.517 91.545 141.382 90.4534 133.563Z" fill="#00A558" stroke="black" stroke-width="1.32"/>
<path d="M83.5004 32V36.5L83 48C84.1667 48.1667 86.5 49 86.5 51C86.5 53 84.1667 53.5 83 53.5C83 53.5 82.5 62.5 78.5 64C76.825 64.6281 72.5 64.6667 70.5 64.5V72.5C69.8333 72.8333 67.7 73.5 64.5 73.5C61.3 73.5 58.8333 72.1667 58 71.5C57.8335 67.8333 57.5004 60.1 57.5004 58.5C57.5004 56.5 56.5004 57 55.0004 56.5C53.5004 56 52.0004 55 52.5004 52C52.9004 49.6 56.0004 49.6667 57.5004 50L54.0004 45.5L61.0004 28L83.5004 32Z" fill="white"/>
<path d="M69.0406 64.6535H74.9006C81.6726 64.6535 82.231 58.9541 82.231 58.9541L83.0972 53.3791C83.0972 53.3791 86.5649 53.2098 86.5984 50.7116C86.6319 48.1464 83.3477 48.044 83.3477 48.044V36.7582" stroke="black" stroke-width="1.32318" stroke-linecap="round" stroke-linejoin="round"/>
<path d="M61.7309 31.1627L61.7309 31.1626L61.7309 31.1626L61.3967 29.727L62.6903 30.434C66.2227 32.3647 69.3727 32.2424 72.3363 31.5618C73.5193 31.29 74.6568 30.9335 75.7891 30.5786C76.0931 30.4833 76.3967 30.3881 76.7007 30.2948C78.1179 29.8595 79.5391 29.465 80.9426 29.3425C82.0013 29.2501 83.0438 29.5019 84.0102 29.882C84.9764 30.2619 85.9082 30.7875 86.7464 31.2791C86.8904 31.3635 87.031 31.4465 87.1682 31.5276C87.8498 31.9301 88.4498 32.2845 88.9868 32.5292C89.4622 32.7458 89.7839 32.8249 89.9986 32.8282C88.7304 32.3644 87.5356 31.4781 86.3497 30.4324C85.6029 29.7739 84.8181 29.0126 84.0037 28.2226C83.4578 27.693 82.8986 27.1506 82.3287 26.6176C79.4371 23.9133 76.0038 21.1867 71.2513 20.0634C65.7999 18.775 62.8419 20.2507 61.2312 21.9074C60.4067 22.7556 59.9025 23.6845 59.6047 24.4054C59.4562 24.7647 59.3605 25.0688 59.3025 25.2797C59.2736 25.385 59.2542 25.4667 59.2424 25.5199C59.2365 25.5465 59.2325 25.566 59.2302 25.5777L59.228 25.5889L59.2279 25.5894L59.2278 25.5897L59.2277 25.5902L59.2277 25.5907L59.0999 26.3151L58.3932 26.1079L58.3931 26.1078L58.3929 26.1078L58.3923 26.1076L58.3899 26.1069L58.3716 26.1019C58.3544 26.0971 58.327 26.0898 58.2902 26.0806C58.2166 26.0621 58.1058 26.0358 57.9635 26.0068C57.6785 25.9488 57.2703 25.8804 56.7856 25.8413C55.8082 25.7623 54.5619 25.8056 53.3925 26.254C52.2431 26.6948 51.1474 27.533 50.434 29.101C49.7112 30.6897 49.357 33.0811 49.8271 36.6574L49.1727 36.7434L49.8271 36.6574C50.0701 38.5062 50.6868 41.6283 51.4634 44.5606C51.8514 46.0255 52.2762 47.431 52.7099 48.5994C52.9414 49.223 53.1687 49.7599 53.3858 50.1956C53.5675 50.0076 53.7788 49.8544 54.007 49.7327C54.5842 49.4251 55.2643 49.3187 55.8634 49.2931C56.2427 49.2769 56.6131 49.2923 56.9418 49.3207C56.8102 48.9928 56.6742 48.6091 56.5591 48.1898C56.2069 46.9072 56.009 45.1383 56.9405 43.6499C57.3634 42.9741 57.768 42.5302 58.1902 42.2188C58.611 41.9084 59.0153 41.757 59.3588 41.6306L59.3894 41.6193C59.7225 41.4969 60.0036 41.3935 60.3191 41.193C60.6408 40.9886 61.0217 40.6663 61.4846 40.0877C61.8731 39.6021 62.1247 38.8391 62.2475 37.8792C62.3685 36.9337 62.3552 35.8748 62.2788 34.8691C62.2026 33.8668 62.0652 32.9375 61.9464 32.2574C61.8872 31.918 61.8328 31.6421 61.7934 31.452C61.7738 31.357 61.7579 31.2835 61.747 31.2344L61.7347 31.1792L61.7317 31.166L61.731 31.1631L61.7309 31.1627Z" fill="white" stroke="black" stroke-width="1.32"/>
<path d="M70.9922 64.6996V72.3432C70.9922 72.3432 66.2728 75.8487 58.0647 71.6375L57.5847 57.6999C57.5778 57.4567 57.4802 57.2248 57.3111 57.0497C57.1421 56.8746 56.9137 56.7689 56.6709 56.7534C55.2295 56.6652 52.5249 56.1359 52.5249 53.4305C52.5249 49.737 55.2948 49.0754 58.0647 50.1472" stroke="black" stroke-width="1.32318" stroke-linejoin="round"/>
<path d="M77.5944 42.2373C77.4683 42.2373 77.3473 42.2874 77.2582 42.3766C77.169 42.4657 77.1189 42.5867 77.1189 42.7128V44.3271C77.1189 44.4532 77.169 44.5741 77.2582 44.6633C77.3473 44.7524 77.4683 44.8025 77.5944 44.8025C77.7342 44.8025 77.8727 44.7749 78.0019 44.7214C78.1311 44.6678 78.2484 44.5893 78.3472 44.4903C78.446 44.3913 78.5244 44.2738 78.5777 44.1446C78.6311 44.0153 78.6584 43.8768 78.6582 43.7369V43.2959C78.6568 43.0146 78.5441 42.7454 78.3447 42.547C78.1454 42.3487 77.8756 42.2373 77.5944 42.2373Z" fill="black"/>
<path d="M73.3678 42.2373C73.2417 42.2373 73.1208 42.2874 73.0316 42.3766C72.9424 42.4657 72.8923 42.5867 72.8923 42.7128V44.3271C72.8923 44.4532 72.9424 44.5741 73.0316 44.6633C73.1208 44.7524 73.2417 44.8025 73.3678 44.8025C73.5077 44.8025 73.6461 44.7749 73.7753 44.7214C73.9045 44.6678 74.0219 44.5893 74.1207 44.4903C74.2195 44.3913 74.2978 44.2738 74.3512 44.1446C74.4045 44.0153 74.4319 43.8768 74.4316 43.7369V43.2959C74.4302 43.0146 74.3175 42.7454 74.1182 42.547C73.9188 42.3487 73.649 42.2373 73.3678 42.2373Z" fill="black"/>
<path d="M74.084 54.7466C74.084 54.7466 70.9965 55.4241 69.4687 51.623" stroke="black" stroke-width="1.32318" stroke-linecap="round" stroke-linejoin="round"/>
<path d="M58.6914 26.0917C58.6914 26.0917 56.7905 24.0629 57.5509 19.7563" stroke="black" stroke-width="1.76424" stroke-linecap="round" stroke-linejoin="round"/>
<path d="M135.739 108.384C135.739 108.384 146.714 100.914 152.159 89.4033C159.668 73.5261 150.862 63.7822 148.601 71.1163C145.961 79.6707 161.56 73.8345 158.281 52.6693" stroke="black" stroke-width="1.32318" stroke-linecap="round" stroke-linejoin="round" stroke-dasharray="1.76 3.53"/>
<path d="M114.366 79.0966L115.243 76.1688C115.661 72.5398 113.479 68.909 113.015 67.3882C112.114 64.4604 114.658 60.7184 117.97 61.0254C121.01 61.3077 125.009 63.5589 125.005 66.0262C124.968 66.5247 124.741 66.9902 124.373 67.3276C124.004 67.665 123.52 67.8488 123.02 67.8416C121.866 67.598 120.725 67.2951 119.603 66.9339" stroke="black" stroke-width="1.32318" stroke-linecap="round" stroke-linejoin="round"/>
<path d="M123.683 60.9498C123.683 60.9498 123.937 58.8583 124.359 55.1278C124.78 51.3973 126.133 45.3486 122.924 44.8952C120.04 44.4903 119.883 47.598 119.883 47.598L117.969 61.0265" stroke="black" stroke-width="1.32318" stroke-linecap="round" stroke-linejoin="round"/>
<path d="M124.655 57.7596L126.724 58.3507C128.498 58.8579 129.005 59.5609 129.047 62.4896C129.092 65.6132 127.519 66.7405 125.458 66.5474" stroke="black" stroke-width="1.32318" stroke-linecap="round" stroke-linejoin="round"/>
<path d="M129.047 60.1815C129.047 60.1815 132.762 59.2799 133.226 63.081C133.697 66.9376 132.546 68.4619 130.973 68.514C129.468 68.5696 128.144 67.833 127.934 66.9341" stroke="black" stroke-width="1.32318" stroke-linecap="round" stroke-linejoin="round"/>
<path d="M133.819 63.2053C133.819 63.2053 137.281 64.1757 137.028 67.0064C136.775 69.8371 134.782 71.1868 133.35 70.4696C131.918 69.7524 131.934 69.0432 131.934 69.0432" stroke="black" stroke-width="1.32318" stroke-linecap="round" stroke-linejoin="round"/>
<path d="M135.345 70.2817C135.345 70.2817 134.486 74.4277 131.537 76.4566C128.789 78.3452 128.383 82.0316 128.383 82.0316" stroke="black" stroke-width="1.32318" stroke-linecap="round" stroke-linejoin="round"/>
<path d="M87.4113 103.747C88.4956 111.986 89.156 116.981 89.5566 120" stroke="black" stroke-width="1.32318" stroke-linecap="round" stroke-linejoin="round"/>
<path d="M33.5586 118.905L20.7793 162.058" stroke="black" stroke-width="1.32318" stroke-linecap="round" stroke-linejoin="round"/>
<path d="M49.2752 29.2435C48.4752 32.8435 49.6085 37.7435 50.2752 39.7435C53.7754 39.7435 57.2754 39.2434 60.2754 37.7434C69.2754 40.7434 77.2754 36.7434 79.7754 33.7434C82.2754 30.7434 83.2754 30.2434 85.7754 28.2434C87.7754 26.6434 85.9421 25.9101 84.7754 25.7435C83.7754 26.2434 82.7754 25.7435 81.7754 25.7435C78.2754 19.2435 71.2754 17.2435 62.7754 18.2435C54.2754 19.2435 50.2752 24.7435 49.2752 29.2435Z" fill="#00A558"/>
<path d="M51.1793 40.0756C52.6883 40.0406 54.1933 39.9016 55.6843 39.6606C58.7833 39.1716 61.6823 37.8196 64.0503 35.7606C67.3283 33.1826 71.7913 32.8506 75.4123 30.7826L82.7793 26.2716L82.5183 25.6206C82.4273 25.3996 80.2703 20.1786 73.1293 18.0636C66.8893 16.2146 60.4313 16.7956 55.4113 19.6566C52.0853 21.3976 49.6183 24.4246 48.5833 28.0336C47.7233 31.6836 47.8153 35.4936 48.8493 39.0986C48.8643 39.2526 48.9233 39.3996 49.0203 39.5206C49.1813 39.7266 49.4543 40.0726 51.1773 40.0726M81.0073 25.4616L74.9013 29.5936L74.8383 29.6306C71.1233 31.7456 66.5713 32.1366 63.2143 34.7846C61.0303 36.6876 58.3533 37.9366 55.4913 38.3876C51.6053 38.9496 50.4013 38.7926 50.0673 38.6996C49.1013 35.3256 49.0173 31.7586 49.8253 28.3426C50.7773 25.0746 53.0243 22.3376 56.0443 20.7676C60.7633 18.0776 66.8583 17.5396 72.7643 19.2896C76.2063 20.2046 79.1613 22.4166 81.0073 25.4616Z" fill="black"/>
<path d="M81.3234 31.5925C82.8574 28.5255 86.7254 27.7275 88.8244 27.3305C93.5464 26.4355 95.6924 28.2145 96.6844 29.8965C97.5924 31.4415 97.6084 33.3535 96.7274 34.9155C92.9854 42.1055 83 39 83 39C83 39 83.6296 37 83 34.9155C82.3704 32.8311 81.3234 31.5925 81.3234 31.5925Z" fill="black"/>
<path d="M86.5 26.0001C86.4712 25.9905 86.4413 25.981 86.4102 25.9717C85.9353 26.4824 84.8105 27.7699 82.5004 30.5C77.0004 37 72.5 38 69 38.5C65.5 39 62 38 60 37.5C64 35.5 65 32.5001 73.5 28.5001C80.1696 25.3615 84.8189 25.4937 86.4102 25.9717C86.8398 25.5097 86.7376 25.6834 86.5 26.0001Z" fill="white"/>
<path d="M66.1852 39.1756C66.4722 39.1756 66.7652 39.1696 67.0632 39.1596C72.7952 39.0526 78.1893 36.4346 81.8203 31.9986L81.8563 31.9496C84.7113 28.0536 89.858 27.223 94.329 29.054L94.336 29.057C94.976 29.286 95.483 28.49 95.007 28.006L95 28C94.816 27.816 90.3532 22.8466 78.9282 26.2006C78.5442 26.3126 78.1532 26.4236 77.7522 26.5366C74.0622 27.4446 70.5562 28.9756 67.3812 31.0626C65.3382 32.4086 63.7182 33.6976 62.4172 34.7346C60.9732 35.8856 59.767 37.171 59.121 37.262C58.457 37.356 58.366 38.279 59 38.5C61.306 39.212 63.7722 39.1896 66.1852 39.1736M80.8153 31.1996C77.4513 35.3596 72.4102 37.8056 67.0612 37.8746C65.5612 37.9266 64.0602 37.8386 62.5782 37.6116C62.0242 37.5276 61.8382 36.8206 62.2812 36.4756C62.5732 36.2476 62.8832 35.9996 63.2152 35.7346C64.4962 34.7146 66.0902 33.4446 68.0882 32.1306C71.1492 30.1116 74.5362 28.6366 78.1002 27.7686C78.5052 27.6546 78.9042 27.5436 79.2952 27.4296C81.1723 26.8046 83.1173 26.4236 85.0813 26.2916C85.7873 26.2446 86.0393 27.2096 85.3953 27.5086C83.6123 28.3376 82.0353 29.5956 80.8223 31.1986" fill="black"/>
</g>
<path d="M1 129.5H124" stroke="black" stroke-width="1.32" stroke-linecap="round"/>
</svg>
