<svg id="no_profile_shopper" xmlns="http://www.w3.org/2000/svg" xmlns:xlink="http://www.w3.org/1999/xlink" width="256" height="256" viewBox="0 0 256 256">
  <defs>
    <clipPath id="clip-path">
      <rect id="사각형_3072" data-name="사각형 3072" width="256" height="256" fill="none"/>
    </clipPath>
  </defs>
  <rect id="사각형_3071" data-name="사각형 3071" width="256" height="256" fill="#f2f2f2"/>
  <g id="그룹_1413" data-name="그룹 1413">
    <g id="그룹_1412" data-name="그룹 1412" clip-path="url(#clip-path)">
      <path id="패스_8656" data-name="패스 8656" d="M208.981,206.491,204.4,172.557c-2.229-13.01-13.013-22.917-29.131-26.549l-66.949-11.725a7.267,7.267,0,0,0-2.757,0l-67.173,11.9c-15.536,3.221-26.613,13.362-28.907,26.725L4.917,206.491a2.855,2.855,0,0,0-.059.7H209.034a3.134,3.134,0,0,0-.053-.7M141.562,25.86a48.362,48.362,0,0,0-69.525.293A42.519,42.519,0,0,0,60.255,58.034C60.49,62.609,64,81.069,64.709,84.647c4.459,24.672,21.051,40.615,42.267,40.615,21.28,0,37.461-15.532,42.272-40.556,1-5.1,4.219-22.214,4.448-26.789A43.426,43.426,0,0,0,141.562,25.86" transform="translate(21.051 48.806)" fill="#9e9e9e"/>
    </g>
  </g>
</svg>
