<svg id="step_1_ON" xmlns="http://www.w3.org/2000/svg" width="48" height="48" viewBox="0 0 48 48">
  <path id="패스_8667" data-name="패스 8667" d="M24,0A24,24,0,1,1,0,24,24,24,0,0,1,24,0Z" fill="#02b763"/>
  <path id="패스_8664" data-name="패스 8664" d="M19.429,7.5c0-.119,0-.432-1.5-6.839A.857.857,0,0,0,17.095,0H2.333A.857.857,0,0,0,1.5.662C0,7.069,0,7.382,0,7.5A3.054,3.054,0,0,0,1.106,9.841v5.04a3.814,3.814,0,0,0,3.81,3.809h9.594a3.814,3.814,0,0,0,3.81-3.809V9.841A3.051,3.051,0,0,0,19.429,7.5M3.013,1.714h13.4c.627,2.695,1.262,5.5,1.3,5.786a1.331,1.331,0,0,1-.522,1.042.833.833,0,0,0-.346.216A1.342,1.342,0,0,1,15,7.5a.857.857,0,1,0-1.714,0,1.357,1.357,0,0,1-2.714,0,.857.857,0,1,0-1.714,0,1.357,1.357,0,0,1-2.714,0,.857.857,0,0,0-1.714,0A1.358,1.358,0,0,1,3.071,8.857a1.331,1.331,0,0,1-.487-.1.854.854,0,0,0-.361-.218,1.274,1.274,0,0,1-.512-.978c.041-.345.675-3.153,1.3-5.848M9.095,14.262h1.238v2.714H9.095Zm7.512.619a2.1,2.1,0,0,1-2.1,2.095H12.047V13.4a.857.857,0,0,0-.857-.857H8.238a.857.857,0,0,0-.857.857v3.571H4.917a2.1,2.1,0,0,1-2.1-2.095V10.546c.085.007.165.025.25.025a3.062,3.062,0,0,0,2.215-.945,3.066,3.066,0,0,0,4.429,0,3.066,3.066,0,0,0,4.429,0,3.059,3.059,0,0,0,2.214.945c.086,0,.167-.018.25-.025Z" transform="translate(13.714 14.857)" fill="#fff"/>
</svg>
