<svg id="step_3_OFF" xmlns="http://www.w3.org/2000/svg" width="48" height="48" viewBox="0 0 48 48">
  <circle id="타원_42" data-name="타원 42" cx="24" cy="24" r="24" fill="#e4e4e4"/>
  <path id="패스_8666" data-name="패스 8666" d="M3.611,7.151H.745a.746.746,0,0,1,0-1.491H3.611a.746.746,0,0,1,0,1.491M2.679,4.2h1.5a.745.745,0,1,0,0-1.49h-1.5a.745.745,0,1,0,0,1.49m16.75,1.966V10a.746.746,0,0,1-.745.745H17.623a2.042,2.042,0,0,1-3.8,0H7.953a2.042,2.042,0,0,1-3.8,0h-.8a.745.745,0,0,1,0-1.49h.8a2.042,2.042,0,0,1,3.8,0h4.061V1.49H3.35A.745.745,0,1,1,3.35,0h9.41A.746.746,0,0,1,13.5.745V2.711h2.7a.745.745,0,0,1,.55.243l2.478,2.71a.744.744,0,0,1,.2.5M15.17,10a.551.551,0,1,0,.551-.552A.551.551,0,0,0,15.17,10m1.823-4.578L15.878,4.2H13.5V9.255h.317a2.042,2.042,0,0,1,3.8,0h.315V6.912H14.587a.745.745,0,0,1,0-1.49ZM6.051,9.448A.552.552,0,1,0,6.6,10a.552.552,0,0,0-.552-.552" transform="translate(14.286 17.979)"/>
</svg>
