<svg id="step_2_OFF" xmlns="http://www.w3.org/2000/svg" width="48" height="48" viewBox="0 0 48 48">
  <circle id="타원_42" data-name="타원 42" cx="24" cy="24" r="24" fill="#e4e4e4"/>
  <path id="패스_8665" data-name="패스 8665" d="M7.153,17.371A2.063,2.063,0,1,1,5.1,15.3a2.063,2.063,0,0,1,2.057,2.069M15.976,3.109,14.262,13.154c-.011.046-.034.091-.046.126V13.3a.826.826,0,0,1-.823.777l-.057-.011-8.469-.537A4.387,4.387,0,0,1,.879,10.069L.022,5.977a.8.8,0,0,1,.16-.7.813.813,0,0,1,.64-.3H2.616V3.509A1.2,1.2,0,0,1,3.827,2.3h2.32V1.429A1.323,1.323,0,0,1,7.359,0h4.354a1.316,1.316,0,0,1,1.211,1.429V5.806a.819.819,0,0,1-.823.823H1.85l.651,3.1a2.724,2.724,0,0,0,2.48,2.16l7.737.491L13.7,6.629l.286-1.646.366-2.149A.809.809,0,0,1,14.7,2.3.758.758,0,0,1,15.3,2.16a.817.817,0,0,1,.674.949M7.9,2.3H8.17A1.212,1.212,0,0,1,9.382,3.509V4.983h1.806V1.749H7.9ZM4.353,4.983h3.28V4.046H4.353ZM11.976,15.3a2.063,2.063,0,1,0,2.069,2.069A2.066,2.066,0,0,0,11.976,15.3" transform="translate(15.434 14.857)" fill="#333"/>
</svg>
